<?xml version="1.0" encoding="UTF-8" standalone="no"?>
<!-- Created with Inkscape (http://www.inkscape.org/) -->

<svg
   xmlns:dc="http://purl.org/dc/elements/1.1/"
   xmlns:cc="http://creativecommons.org/ns#"
   xmlns:rdf="http://www.w3.org/1999/02/22-rdf-syntax-ns#"
   xmlns:svg="http://www.w3.org/2000/svg"
   xmlns="http://www.w3.org/2000/svg"
   xmlns:xlink="http://www.w3.org/1999/xlink"
   xmlns:sodipodi="http://sodipodi.sourceforge.net/DTD/sodipodi-0.dtd"
   xmlns:inkscape="http://www.inkscape.org/namespaces/inkscape"
   width="744.09448819"
   height="1052.3622047"
   id="svg2"
   version="1.1"
   inkscape:version="0.48.5 r10040"
   sodipodi:docname="guile-prime.svg">
  <title
     id="title3999">GNU Guile Prime Logo</title>
  <defs
     id="defs4">
    <inkscape:path-effect
       effect="spiro"
       id="path-effect4057"
       is_visible="true" />
    <linearGradient
       inkscape:collect="always"
       xlink:href="#linearGradient5494"
       id="linearGradient5500"
       x1="38.724209"
       y1="26.22546"
       x2="33.057144"
       y2="76.135513"
       gradientUnits="userSpaceOnUse" />
    <linearGradient
       id="linearGradient5494">
      <stop
         style="stop-color:#aabfb0;stop-opacity:1;"
         offset="0"
         id="stop5496" />
      <stop
         style="stop-color:#84a38d;stop-opacity:1;"
         offset="1"
         id="stop5498" />
    </linearGradient>
    <linearGradient
       id="linearGradient5478">
      <stop
         style="stop-color:#fcbc1a;stop-opacity:1;"
         offset="0"
         id="stop5480" />
      <stop
         style="stop-color:#f3d077;stop-opacity:0.93859649;"
         offset="1"
         id="stop5482" />
    </linearGradient>
    <linearGradient
       id="linearGradient5470">
      <stop
         style="stop-color:#cdb974;stop-opacity:1;"
         offset="0"
         id="stop5472" />
      <stop
         style="stop-color:#d1b249;stop-opacity:1;"
         offset="1"
         id="stop5474" />
    </linearGradient>
    <linearGradient
       id="linearGradient5784">
      <stop
         style="stop-color:#aabfb0;stop-opacity:1;"
         offset="0"
         id="stop5786" />
      <stop
         style="stop-color:#84a38d;stop-opacity:1;"
         offset="1"
         id="stop5788" />
    </linearGradient>
    <linearGradient
       id="linearGradient5462">
      <stop
         style="stop-color:#cdb06a;stop-opacity:1;"
         offset="0"
         id="stop5464" />
      <stop
         style="stop-color:#cba853;stop-opacity:1;"
         offset="1"
         id="stop5466" />
    </linearGradient>
    <linearGradient
       id="linearGradient5486">
      <stop
         style="stop-color:#dfcb8c;stop-opacity:1;"
         offset="0"
         id="stop5488" />
      <stop
         style="stop-color:#d2b65e;stop-opacity:1;"
         offset="1"
         id="stop5490" />
    </linearGradient>
    <linearGradient
       id="linearGradient5510">
      <stop
         style="stop-color:#cdb873;stop-opacity:1;"
         offset="0"
         id="stop5512" />
      <stop
         style="stop-color:#c6af61;stop-opacity:1;"
         offset="1"
         id="stop5514" />
    </linearGradient>
    <linearGradient
       id="linearGradient5454">
      <stop
         style="stop-color:#e5c988;stop-opacity:1;"
         offset="0"
         id="stop5456" />
      <stop
         style="stop-color:#dcb65d;stop-opacity:1;"
         offset="1"
         id="stop5458" />
    </linearGradient>
    <linearGradient
       id="linearGradient5446">
      <stop
         style="stop-color:#e5c988;stop-opacity:1;"
         offset="0"
         id="stop5448" />
      <stop
         style="stop-color:#d8ae4b;stop-opacity:1;"
         offset="1"
         id="stop5450" />
    </linearGradient>
    <linearGradient
       inkscape:collect="always"
       xlink:href="#linearGradient5494"
       id="linearGradient5993"
       gradientUnits="userSpaceOnUse"
       gradientTransform="matrix(0.46292485,0,0,0.46292485,394.30133,280.46334)"
       x1="38.724209"
       y1="26.22546"
       x2="33.057144"
       y2="76.135513" />
    <linearGradient
       inkscape:collect="always"
       xlink:href="#linearGradient5478"
       id="linearGradient5995"
       gradientUnits="userSpaceOnUse"
       gradientTransform="matrix(0.46292485,0,0,0.46292485,394.30133,280.46334)"
       x1="26.743456"
       y1="33.909828"
       x2="35.401268"
       y2="39.293087" />
    <linearGradient
       inkscape:collect="always"
       xlink:href="#linearGradient5470"
       id="linearGradient5997"
       gradientUnits="userSpaceOnUse"
       gradientTransform="matrix(0.46292485,0,0,0.46292485,394.30133,280.46334)"
       x1="42.432289"
       y1="24.783386"
       x2="32.90023"
       y2="45.02887" />
    <linearGradient
       inkscape:collect="always"
       xlink:href="#linearGradient5494"
       id="linearGradient5999"
       gradientUnits="userSpaceOnUse"
       gradientTransform="matrix(0.46292485,0,0,0.46292485,394.30133,280.46334)"
       x1="157.82664"
       y1="11.208718"
       x2="164.05792"
       y2="73.42981" />
    <linearGradient
       inkscape:collect="always"
       xlink:href="#linearGradient5462"
       id="linearGradient6001"
       gradientUnits="userSpaceOnUse"
       gradientTransform="matrix(0.46292485,0,0,0.46292485,394.30133,280.46334)"
       x1="154.95158"
       y1="16.011023"
       x2="162.37524"
       y2="30.899527" />
    <linearGradient
       inkscape:collect="always"
       xlink:href="#linearGradient5486"
       id="linearGradient6003"
       gradientUnits="userSpaceOnUse"
       gradientTransform="matrix(0.46292485,0,0,0.46292485,394.30133,280.46334)"
       x1="88.422516"
       y1="83.461342"
       x2="121.58204"
       y2="120.15018" />
    <linearGradient
       inkscape:collect="always"
       xlink:href="#linearGradient5510"
       id="linearGradient6005"
       gradientUnits="userSpaceOnUse"
       gradientTransform="matrix(0.46292485,0,0,0.46292485,394.30133,280.46334)"
       x1="107.95062"
       y1="116.55167"
       x2="100.84061"
       y2="135.12505" />
    <linearGradient
       inkscape:collect="always"
       xlink:href="#linearGradient5454"
       id="linearGradient6007"
       gradientUnits="userSpaceOnUse"
       gradientTransform="matrix(0.46292485,0,0,0.46292485,394.30133,280.46335)"
       x1="108.26636"
       y1="8.9126301"
       x2="101.1438"
       y2="89.231453" />
    <linearGradient
       inkscape:collect="always"
       xlink:href="#linearGradient5446"
       id="linearGradient6009"
       gradientUnits="userSpaceOnUse"
       gradientTransform="matrix(0.46292485,0,0,0.46292485,394.30133,280.46334)"
       x1="97.454773"
       y1="-0.53673768"
       x2="101.89899"
       y2="29.437613" />
    <filter
       inkscape:label="Desaturate"
       x="0"
       y="0"
       width="1"
       height="1"
       inkscape:menu="Color"
       inkscape:menu-tooltip="Render in shades of gray by reducing saturation to zero"
       color-interpolation-filters="sRGB"
       id="filter6069">
      <feColorMatrix
         type="saturate"
         values="0"
         id="feColorMatrix6071" />
    </filter>
  </defs>
  <sodipodi:namedview
     id="base"
     pagecolor="#ffffff"
     bordercolor="#666666"
     borderopacity="1.0"
     inkscape:pageopacity="0.0"
     inkscape:pageshadow="2"
     inkscape:zoom="1.4"
     inkscape:cx="114.38227"
     inkscape:cy="712.08606"
     inkscape:document-units="px"
     inkscape:current-layer="layer2"
     showgrid="false"
     showguides="false"
     inkscape:guide-bbox="true"
     inkscape:window-width="1278"
     inkscape:window-height="1004"
     inkscape:window-x="0"
     inkscape:window-y="18"
     inkscape:window-maximized="1"
     inkscape:snap-global="false">
    <inkscape:grid
       type="xygrid"
       id="grid2997" />
    <sodipodi:guide
       orientation="0,1"
       position="394.64286,612.5"
       id="guide6117" />
    <sodipodi:guide
       orientation="1,0"
       position="388.15112,791.70706"
       id="guide6119" />
  </sodipodi:namedview>
  <metadata
     id="metadata7">
    <rdf:RDF>
      <cc:Work
         rdf:about="">
        <dc:format>image/svg+xml</dc:format>
        <dc:type
           rdf:resource="http://purl.org/dc/dcmitype/StillImage" />
        <dc:title>GNU Guile Prime Logo</dc:title>
        <dc:creator>
          <cc:Agent>
            <dc:title>Artyom V. Poptsov &lt;poptsov.artyom@gmail.com&gt;</dc:title>
          </cc:Agent>
        </dc:creator>
        <cc:license
           rdf:resource="https://www.gnu.org/licenses/fdl.html" />
        <dc:subject>
          <rdf:Bag>
            <rdf:li>gnu</rdf:li>
            <rdf:li>guile</rdf:li>
            <rdf:li>scheme</rdf:li>
            <rdf:li>lisp</rdf:li>
            <rdf:li>lambda</rdf:li>
          </rdf:Bag>
        </dc:subject>
        <dc:date>2015-10-20</dc:date>
        <dc:description>A logo for GNU Guile Prime project.  The logo represents a lambda, GNU Guile and everything else inside the Universal REPL.

Guile Prime logo is available under the terms of the following licenses, at your option:

   - the GNU General Public License (version 3 and later)
     &lt;https://www.gnu.org/licenses/gpl.html&gt;
   - the GNU Free Documentation License (version 1.2 and later)
     &lt;https://www.gnu.org/licenses/fdl.html&gt;</dc:description>
      </cc:Work>
    </rdf:RDF>
  </metadata>
  <g
     inkscape:label="circle"
     inkscape:groupmode="layer"
     id="layer1"
     style="display:inline">
    <path
       sodipodi:type="arc"
       style="fill:#ffffff;fill-opacity:1;stroke:#000000;stroke-width:1;stroke-linecap:butt;stroke-linejoin:round;stroke-miterlimit:4;stroke-opacity:1;stroke-dasharray:none;stroke-dashoffset:0"
       id="path3815"
       sodipodi:cx="186.02362"
       sodipodi:cy="299.40942"
       sodipodi:rx="62.007874"
       sodipodi:ry="62.007874"
       d="m 248.03149,299.40942 a 62.007874,62.007874 0 1 1 -124.01574,0 62.007874,62.007874 0 1 1 124.01574,0 z"
       transform="matrix(2.1142859,0,0,2.1142859,-5.4140002,-271.61983)"
       inkscape:export-filename="/home/avp/graph/моё/guile-prime/guile-prime-2015-10-20.png"
       inkscape:export-xdpi="299"
       inkscape:export-ydpi="299" />
    <path
       style="font-size:medium;font-style:normal;font-variant:normal;font-weight:normal;font-stretch:normal;text-indent:0;text-align:start;text-decoration:none;line-height:normal;letter-spacing:normal;word-spacing:normal;text-transform:none;direction:ltr;block-progression:tb;writing-mode:lr-tb;text-anchor:start;baseline-shift:baseline;color:#000000;fill:#000000;fill-opacity:1;stroke:none;stroke-width:1;marker:none;visibility:visible;display:inline;overflow:visible;enable-background:accumulate;font-family:Sans;-inkscape-font-specification:Sans"
       d="m 497.75415,361.41185 c 0,60.66459 -49.18338,109.84797 -109.84796,109.84797 -60.66458,0 -109.84796,-49.18338 -109.84796,-109.84797 0,-60.66458 49.18338,-109.84796 109.84796,-109.84796 60.66458,0 109.84796,49.18338 109.84796,109.84796 z m -217.93835,0 c 0,59.71473 48.37567,108.0904 108.09039,108.0904 59.71472,0 108.09039,-48.37567 108.09039,-108.0904 0,-59.71472 -48.37567,-108.09039 -108.09039,-108.09039 -59.71472,0 -108.09039,48.37567 -108.09039,108.09039 z"
       id="path3815-4"
       inkscape:connector-curvature="0"
       sodipodi:nodetypes="ssssssssss"
       inkscape:export-filename="/home/avp/graph/моё/guile-prime/guile-prime-2015-10-20.png"
       inkscape:export-xdpi="299"
       inkscape:export-ydpi="299" />
    <flowRoot
       xml:space="preserve"
       id="flowRoot3835"
       style="font-size:12px;font-style:normal;font-weight:normal;line-height:125%;letter-spacing:0px;word-spacing:0px;fill:#000000;fill-opacity:1;stroke:none;font-family:Bitstream Vera Sans"
       transform="translate(139.86162,0)"
       inkscape:export-filename="/home/avp/graph/моё/guile-prime/guile-prime-2015-10-20.png"
       inkscape:export-xdpi="299"
       inkscape:export-ydpi="299"><flowRegion
         id="flowRegion3837"><rect
           id="rect3839"
           width="32.857143"
           height="14.285714"
           x="144.28572"
           y="187.36218" /></flowRegion><flowPara
         id="flowPara3841" /></flowRoot>  </g>
  <g
     inkscape:groupmode="layer"
     id="layer2"
     inkscape:label="repl"
     style="display:inline">
    <text
       xml:space="preserve"
       style="font-size:12px;font-style:normal;font-weight:normal;line-height:125%;letter-spacing:0px;word-spacing:0px;fill:#000000;fill-opacity:1;stroke:none;display:inline;font-family:Bitstream Vera Sans"
       id="text3853"
       sodipodi:linespacing="125%"
       transform="matrix(0.77694296,0.62845642,-0.62663585,0.77469223,309.7143,-161.3314)"
       inkscape:export-filename="/home/avp/graph/моё/guile-prime/guile-prime-2015-10-20.png"
       inkscape:export-xdpi="299"
       inkscape:export-ydpi="299"><textPath
         xlink:href="#path3815-4-5"
         id="textPath4018"><tspan
   id="tspan3857">read * eval * print * read * eval * print * read * eval * print * read * eval * print * read * eval * print * read * eval * print *</tspan></textPath></text>
    <path
       style="font-size:medium;font-style:normal;font-variant:normal;font-weight:normal;font-stretch:normal;text-indent:0;text-align:start;text-decoration:none;line-height:normal;letter-spacing:normal;word-spacing:normal;text-transform:none;direction:ltr;block-progression:tb;writing-mode:lr-tb;text-anchor:start;baseline-shift:baseline;color:#000000;fill:none;stroke:none;stroke-width:1;marker:none;visibility:visible;display:inline;overflow:visible;enable-background:accumulate;font-family:Sans;-inkscape-font-specification:Sans"
       d="m 506.30139,358.45605 c 0,64.25373 -52.09319,116.34708 -116.34684,116.34708 -64.25397,0 -116.34716,-52.09335 -116.34716,-116.34708 0,-64.25358 52.09319,-116.34692 116.34716,-116.34692 64.25364,0 116.34684,52.09334 116.34684,116.34692 z m -230.83235,0 c 0,63.24772 51.23771,114.48556 114.48551,114.48556 63.24748,0 114.48547,-51.23784 114.48546,-114.48556 0,-63.24757 -51.23798,-114.48541 -114.48546,-114.48541 -63.24781,0 -114.48551,51.23784 -114.48551,114.48541 z"
       id="path3815-4-5"
       inkscape:connector-curvature="0"
       sodipodi:nodetypes="ssssssssss"
       inkscape:export-filename="/home/avp/graph/моё/guile-prime/guile-prime-2015-10-20.png"
       inkscape:export-xdpi="299"
       inkscape:export-ydpi="299" />
  </g>
  <g
     inkscape:groupmode="layer"
     id="layer6"
     inkscape:label="gnu-guile-prime"
     style="display:inline">
    <text
       xml:space="preserve"
       style="font-size:12px;font-style:normal;font-weight:normal;line-height:104.99999523%;letter-spacing:0px;word-spacing:0px;fill:#000000;fill-opacity:1;stroke:none;display:inline;font-family:Bitstream Vera Sans"
       x="387.02713"
       y="425.26541"
       id="text4047"
       sodipodi:linespacing="105%"
       inkscape:export-filename="/home/avp/graph/моё/guile-prime/guile-prime-2015-10-20.png"
       inkscape:export-xdpi="299"
       inkscape:export-ydpi="299"><tspan
         sodipodi:role="line"
         id="tspan4049"
         x="387.02713"
         y="425.26541"
         style="font-size:14px;text-align:center;line-height:104.99999523%;text-anchor:middle">GNU</tspan><tspan
         sodipodi:role="line"
         x="387.02713"
         y="439.96542"
         style="font-size:14px;text-align:center;line-height:104.99999523%;text-anchor:middle"
         id="tspan6115">GUILE</tspan><tspan
         sodipodi:role="line"
         x="387.02713"
         y="454.66541"
         id="tspan4051"
         style="font-size:16px;text-align:center;line-height:104.99999523%;letter-spacing:5px;text-anchor:middle" /></text>
    <text
       xml:space="preserve"
       style="font-size:12px;font-style:normal;font-weight:normal;line-height:125%;letter-spacing:0px;word-spacing:0px;fill:#000000;fill-opacity:1;stroke:none;display:inline;font-family:Bitstream Vera Sans"
       x="354.07144"
       y="457.36221"
       id="text4001"
       sodipodi:linespacing="125%"
       inkscape:export-filename="/home/avp/graph/моё/guile-prime/guile-prime-2015-10-20.png"
       inkscape:export-xdpi="299"
       inkscape:export-ydpi="299"><tspan
         sodipodi:role="line"
         id="tspan4003"
         x="354.07144"
         y="457.36221"
         style="font-size:16px;letter-spacing:6px">PRIME</tspan></text>
  </g>
  <g
     inkscape:groupmode="layer"
     id="layer5"
     inkscape:label="lambda"
     style="display:inline">
    <g
       style="font-size:12px;font-style:normal;font-weight:normal;line-height:125%;letter-spacing:0px;word-spacing:0px;fill:#000000;fill-opacity:1;stroke:none;display:inline;font-family:Bitstream Vera Sans"
       id="text4040"
       transform="translate(-4,0)"
       inkscape:export-filename="/home/avp/graph/моё/guile-prime/guile-prime-2015-10-20.png"
       inkscape:export-xdpi="299"
       inkscape:export-ydpi="299">
      <path
         d="m 384.16689,332.46726 c -5.0385,-13.92973 -8.37277,-22.74702 -10.00281,-26.4519 -1.55604,-3.7046 -3.14907,-6.63137 -4.77913,-8.78026 -1.55603,-2.2227 -3.3343,-3.85279 -5.33484,-4.89026 -2.00059,-1.03719 -4.44573,-1.55585 -7.33539,-1.55599 -2.14878,1.4e-4 -3.96411,0.37061 -5.44599,1.11142 l -3.88998,-14.44851 c 4.96434,-1.77812 9.74345,-2.66726 14.33737,-2.66742 7.92813,1.6e-4 14.41143,2.70463 19.44994,8.11339 5.03839,5.40909 10.33618,15.4119 15.89336,30.00846 l 47.45782,126.81354 -21.11705,0 -23.00649,-64.1292 c -3.03797,-8.29856 -5.44604,-16.22671 -7.22426,-23.78448 -1.11149,3.40845 -2.48224,7.1132 -4.11228,11.11425 -1.55605,3.9271 -12.89256,29.52689 -34.00958,76.79943 l -20.78364,0 49.90295,-107.25247"
         style="font-size:144px"
         id="path4045"
         inkscape:connector-curvature="0" />
    </g>
    <path
       style="fill:#ffffff;fill-opacity:1;stroke:#000000;stroke-width:0.5;stroke-linecap:butt;stroke-linejoin:miter;stroke-miterlimit:4;stroke-opacity:1;stroke-dasharray:none;display:inline"
       d="m 322.14496,347.86907 c -9.08394,-5.23974 3.83929,-21.88484 10.9259,-32.51476 -17.71653,14.17323 -35.43307,35.43306 -21.25984,42.51968 27.66521,12.23706 125.23323,-27.44772 180.88724,-46.95585 -63.45052,19.17323 -142.96751,48.14469 -170.5533,36.95093 z"
       id="path4055-6"
       inkscape:connector-curvature="0"
       sodipodi:nodetypes="ccccc"
       inkscape:export-filename="/home/avp/graph/моё/guile-prime/guile-prime-2015-10-20.png"
       inkscape:export-xdpi="299"
       inkscape:export-ydpi="299" />
  </g>
  <g
     inkscape:groupmode="layer"
     id="layer3"
     inkscape:label="stars"
     style="display:inline">
    <path
       style="fill:none;stroke:#000000;stroke-width:1.23356771px;stroke-linecap:round;stroke-linejoin:round;stroke-opacity:1"
       d="m 329.37625,283.47655 c -0.13942,3.45141 -0.45678,6.19501 -1.48345,8.99021 -0.76399,1.25557 -1.01206,1.62443 -1.98901,2.52396 -0.97507,0.71068 -7.10551,1.57248 -7.10551,1.57248 1.78478,-0.25394 6.01714,0.83056 7.80973,0.96239 2.02215,1.34834 1.91928,2.168 2.49115,3.54517 0.33907,1.17953 0.38296,3.08665 0.50951,3.70673 0.23484,-2.28686 0.90685,-5.7756 2.1754,-6.77194 0.26007,-0.70609 4.36385,-1.63408 6.13465,-2.10017 -1.8477,0.13975 -5.0879,-1.89964 -6.15349,-2.97312 -1.62938,-1.56349 -1.7142,-4.77527 -1.83242,-9.12339 -0.1357,-0.27129 -0.40087,-0.0729 -0.55656,-0.33232 z"
       id="path5525"
       inkscape:connector-curvature="0"
       sodipodi:nodetypes="cccccccccccc"
       inkscape:export-filename="/home/avp/graph/моё/guile-prime/guile-prime-2015-10-20.png"
       inkscape:export-xdpi="299"
       inkscape:export-ydpi="299" />
    <path
       style="fill:none;stroke:#000000;stroke-width:0.98747039px;stroke-linecap:round;stroke-linejoin:round;stroke-opacity:1"
       d="m 340.34584,325.99125 c -0.0132,1.13624 0.0281,2.27322 -0.0242,3.40888 -0.17838,0.81882 -0.0363,1.69267 -0.19682,2.51445 0.0336,0.70846 -0.9012,0.86859 -1.32531,1.3223 -0.62534,0.22344 -1.1743,0.61234 -1.76813,0.8857 -0.44379,0.20319 -0.96937,0.68428 -1.60462,0.93222 -0.25322,0.27451 -1.14684,0.39386 -0.39695,0.48235 0.73888,0.13943 1.52665,0.0208 2.28528,0.0606 0.81874,-4e-5 1.63749,-1e-4 2.45624,-1e-5 0.42973,1.15262 0.6793,2.36428 0.73074,3.59364 0.0934,0.71543 0.31618,1.41595 0.30129,2.14448 0.16207,0.15449 0.15384,1.26259 0.23748,0.56874 -0.10596,-0.69863 0.18422,-1.34464 0.12199,-2.04259 0.0885,-0.82181 0.23591,-1.6276 0.30566,-2.45069 0.25133,-0.63826 -0.10267,-1.40252 0.39295,-1.9506 0.48913,-0.41108 1.08086,-0.62684 1.69306,-0.84743 0.54951,-0.24354 1.30432,-0.37721 1.68228,-0.76464 -0.80717,-0.32684 -1.60554,-0.72233 -2.4232,-1.06698 -0.52996,-0.32691 -1.25416,-0.55087 -1.54922,-1.12491 -0.22396,-0.58762 -0.065,-1.37989 -0.31234,-2.02516 -0.0799,-0.6639 -0.2205,-1.30481 -0.29861,-1.96544 -0.10656,-0.56528 -0.0402,-1.1482 -0.30757,-1.67491 z"
       id="path5527"
       inkscape:connector-curvature="0"
       inkscape:export-filename="/home/avp/graph/моё/guile-prime/guile-prime-2015-10-20.png"
       inkscape:export-xdpi="299"
       inkscape:export-ydpi="299" />
    <path
       style="fill:none;stroke:#000000;stroke-width:1px;stroke-linecap:round;stroke-linejoin:round;stroke-opacity:1"
       d="m 315.27854,303.7805 c -0.61976,3.79491 -0.31807,4.2953 -1.42859,6.86192 -1.39452,1.82999 -5.75772,1.77641 -5.25316,1.89879 1.61861,-0.3329 3.57028,0.59119 5.2526,0.64127 1.28773,1.36826 0.93,2.11339 1.31421,3.09923 0.1571,1.48856 0.49506,2.98312 0.48739,4.47749 0.5221,-2.3312 0.62494,-4.19416 0.90441,-6.556 1.32771,-1.52282 2.48791,-1.80565 3.86857,-2.2447 1.97912,-0.2589 -3.42152,-1.25831 -3.84165,-1.89745 -0.76234,-1.58401 -0.29488,-2.73593 -1.30378,-6.28055 z"
       id="path5529"
       inkscape:connector-curvature="0"
       sodipodi:nodetypes="cccccccccc"
       inkscape:export-filename="/home/avp/graph/моё/guile-prime/guile-prime-2015-10-20.png"
       inkscape:export-xdpi="299"
       inkscape:export-ydpi="299" />
    <path
       style="fill:none;stroke:#000000;stroke-width:1px;stroke-linecap:round;stroke-linejoin:round;stroke-opacity:1"
       d="m 348.8517,313.83171 c 0.46298,-0.0402 0.77253,0.49327 1.24382,0.39266 1.49487,0.17055 3.0516,0.21728 4.43557,0.87305 -0.54348,-0.17256 -1.02725,-0.4888 -1.56767,-0.66921 -0.32547,-0.29863 -0.86534,-0.0548 -1.16291,-0.40435 -0.1492,-0.34849 0.17972,-0.63658 0.43707,-0.81429 0.65251,-0.48717 1.18689,-1.11 1.70858,-1.72997 0.34548,0.0359 -0.2036,0.47977 -0.27557,0.6597 -0.55158,0.82905 -1.10716,1.65792 -1.75647,2.41503 -0.76702,0.93915 -1.57108,1.85061 -2.26839,2.84435 0.60732,-1.06311 1.19966,-2.13519 1.83993,-3.17907 0.42841,-0.0999 0.32164,-0.88898 -0.13455,-0.81198 -0.46739,-0.0233 -0.72369,-0.52134 -0.92058,-0.88958 -0.1075,-0.2584 -0.59395,-0.63244 -0.3095,-0.87491 0.35991,0.14204 0.44588,0.61303 0.70145,0.88039 0.65502,0.90351 1.04225,1.96342 1.4623,2.98857 0.16835,0.42011 0.33814,0.83984 0.52543,1.25195 0.009,0.0238 0.24912,0.20494 0.0823,0.0982"
       id="path5531"
       inkscape:connector-curvature="0"
       inkscape:export-filename="/home/avp/graph/моё/guile-prime/guile-prime-2015-10-20.png"
       inkscape:export-xdpi="299"
       inkscape:export-ydpi="299" />
    <path
       style="fill:none;stroke:#000000;stroke-width:1px;stroke-linecap:round;stroke-linejoin:round;stroke-opacity:1"
       d="m 357.47389,331.55706 c 0.45953,0.18946 0.8545,0.68625 1.40024,0.54925 0.51441,-0.10958 1.04147,-0.0363 1.56055,-0.0133 0.66553,0.27035 1.41167,-0.09 2.07247,0.2028 0.2969,-0.0102 0.87005,0.0428 0.99799,0.0326 -1.03563,-0.21973 -2.08655,-0.3535 -3.13368,-0.50435 -0.15724,0.27686 0.27317,0.23999 0.28805,0.007 0.94876,-0.84522 1.59901,-1.97795 2.60241,-2.76721 0.0543,-0.25695 0.71993,-0.61754 0.47179,-0.11428 -0.39577,0.46607 -0.78579,0.93674 -1.16098,1.41902 -0.99477,1.17307 -1.98181,2.35413 -2.90976,3.58075 -0.38269,0.43823 -0.7943,0.85467 -1.12244,1.33735 -0.38814,0.16311 0.17745,-0.46462 0.25544,-0.60907 0.61882,-0.87268 1.2884,-1.70829 1.98243,-2.52206 0.17429,-0.52812 -0.38553,-0.92202 -0.37497,-1.43429 -0.20402,-1.00125 -0.39706,-2.0118 -0.76334,-2.96938 0.34508,1.29663 0.93555,2.5124 1.28645,3.80724 0.3889,1.07946 0.87136,2.12142 1.32148,3.17591 0.0376,0.0496 0.0893,0.0908 0.15039,0.1067"
       id="path5533"
       inkscape:connector-curvature="0"
       inkscape:export-filename="/home/avp/graph/моё/guile-prime/guile-prime-2015-10-20.png"
       inkscape:export-xdpi="299"
       inkscape:export-ydpi="299" />
    <path
       style="fill:none;stroke:#000000;stroke-width:1px;stroke-linecap:round;stroke-linejoin:round;stroke-opacity:1"
       d="m 299.43472,326.78051 c 0.47321,0.0945 0.95517,0.17645 1.43755,0.11544 0.3777,-0.21113 0.80894,-0.0948 1.21634,-0.102 0.33397,-0.0719 0.65248,-0.20244 1.00569,-0.13971 0.67416,0.006 1.34932,-0.0109 2.02253,0 0.15922,0.25814 0.51164,0.0164 0.6817,0.26323 0.24542,0.008 0.58468,-0.10162 0.63952,0.12675 0.10227,-0.0252 0.63019,-0.006 0.32028,-0.0112 -0.31796,0.10702 -0.48201,-0.18617 -0.78242,-0.12627 -0.30687,0.0625 -0.54712,-0.15212 -0.84546,-0.13541 -0.80368,0.0197 -1.61008,0.004 -2.41273,0.009 -0.0898,0.27703 -0.96208,0.10027 -0.4501,0.006 0.3093,-0.21926 0.66932,-0.43323 0.93416,-0.74282 0.3089,-0.31319 0.66548,-0.5887 0.86713,-0.98893 0.21801,-0.24025 0.65438,-0.32031 0.71012,-0.67561 0.18181,-0.31283 0.45994,-0.52717 0.78096,-0.56322 0.0892,-0.0521 0.46807,-0.24469 0.38876,-0.18775 -0.20705,0.16052 -0.407,0.67061 -0.7352,0.81739 0.0165,0.17546 -0.56274,0.57482 -0.29788,0.42012 -0.27074,0.33403 -0.48807,0.66084 -0.66696,1.04272 -0.34671,0.31335 -0.68341,0.68004 -0.84767,1.11077 -0.14923,0.39577 -0.66237,0.55098 -0.68332,1.02381 -0.36867,0.331 -0.55691,0.79075 -0.81743,1.20271 -0.25865,0.0415 -0.23535,0.70023 -0.32497,0.62819 -0.0335,-0.27048 -0.16462,0.3149 -0.24656,0.37878 -0.085,0.12618 -0.18173,0.50764 -0.12725,0.10636 0.1211,-0.0786 0.0867,-0.33861 0.26345,-0.32274 -0.0578,-0.18436 0.34202,-0.36905 0.25494,-0.45292 0.18651,0.0752 0.0364,-0.24723 0.24021,-0.15142 -0.0598,-0.1998 0.0543,-0.26533 0.11509,-0.3203 0.0535,-0.0966 0.17998,-0.0404 0.16464,-0.21946 0.19136,-0.22478 0.20136,-0.5304 0.47788,-0.72293 -0.0547,-0.22139 0.0932,-0.38777 0.18942,-0.50508 0.14595,-0.12511 0.0255,-0.54192 0.0727,-0.77832 -0.10126,-0.31691 -0.34741,-0.62788 -0.38843,-0.98946 -0.10316,-0.44049 -0.2041,-0.87795 -0.27407,-1.32949 -0.25733,-0.37139 -0.28253,-0.80664 -0.48354,-1.19588 -0.10198,-0.23241 -0.11814,-0.48322 -0.25873,-0.70265 0.0218,-0.34394 -0.30316,-0.065 0.006,0.0713 0.22416,0.45661 0.49743,0.89427 0.63134,1.38896 0.24573,0.25747 0.29308,0.60978 0.47066,0.90132 0.2498,0.25297 0.21619,0.64927 0.47665,0.89771 0.1657,0.40304 0.56716,0.6406 0.67757,1.077 0.128,0.35062 0.47942,0.60069 0.5489,0.94672 0.14315,0.0927 0.0564,0.25413 0.23527,0.24486 0.0169,0.1948 0.13867,0.34321 0.25933,0.40799 -0.14609,0.27428 0.2488,0.13639 0.10536,0.4401 0.004,0.19647 0.19593,0.29905 0.13045,0.51387 0.12281,0.14283 0.15142,-0.14045 0.12627,0.12626"
       id="path5535"
       inkscape:connector-curvature="0"
       inkscape:export-filename="/home/avp/graph/моё/guile-prime/guile-prime-2015-10-20.png"
       inkscape:export-xdpi="299"
       inkscape:export-ydpi="299" />
    <path
       style="fill:none;stroke:#000000;stroke-width:1px;stroke-linecap:round;stroke-linejoin:round;stroke-opacity:1;display:inline"
       d="m 322.71573,368.83074 c 0.13241,3.37482 -0.36616,6.9896 -1.8058,8.9338 -0.81963,2.18671 -4.71609,1.30541 -7.30912,2.62306 3.36562,0.79474 5.57656,0.0494 7.49099,2.71857 0.65587,2.25037 1.12608,4.44941 1.41544,6.6155 -0.55976,-3.02269 0.99975,-5.11959 1.87337,-7.61939 1.77669,-1.99884 5.90796,-1.53416 7.82397,-2.17351 -1.82048,-0.65684 -5.95137,-1.44547 -7.66229,-2.22319 -2.98095,-2.75827 -0.90459,-7.23566 -1.82656,-8.87484 z"
       id="path5537"
       inkscape:connector-curvature="0"
       sodipodi:nodetypes="ccccccccc"
       inkscape:export-filename="/home/avp/graph/моё/guile-prime/guile-prime-2015-10-20.png"
       inkscape:export-xdpi="299"
       inkscape:export-ydpi="299" />
    <path
       style="fill:none;stroke:#000000;stroke-width:1px;stroke-linecap:round;stroke-linejoin:round;stroke-opacity:1;display:inline"
       d="m 289.4087,364.4483 c 0.48671,0.53835 1.27935,-0.009 1.83137,0.37279 0.65413,0.24194 1.39452,0.11031 2.02783,0.42497 0.69227,-0.0414 1.42939,-0.11153 2.07376,0.20228 0.63613,0.0666 1.31822,-0.0639 1.90971,0.2406 0.67247,-0.008 1.33435,0.15187 1.96446,0.30026 -0.69376,-0.0445 -1.34805,-0.3616 -2.05188,-0.31958 -0.89885,-0.33127 -1.85709,-0.49719 -2.81463,-0.49823 -0.57253,-0.45393 0.42517,-0.79739 0.73406,-1.04098 0.51516,-0.34029 0.96323,-0.78251 1.29147,-1.30428 0.48743,-0.49568 1.15613,-0.79258 1.56823,-1.36569 0.53367,-0.24836 -0.0667,0.55364 -0.20739,0.69295 -0.40612,0.51094 -0.80217,1.03278 -1.15762,1.57866 -0.53596,0.56106 -1.22044,1.06067 -1.41695,1.85345 -0.39035,0.78528 -1.15037,1.31923 -1.4895,2.13796 -0.26296,0.49281 -0.70168,0.87142 -0.90501,1.39514 -0.025,0.26399 -0.66044,0.71338 -0.49419,0.18998 0.32382,-1.00138 1.04495,-1.80733 1.43227,-2.78033 0.32737,-0.52014 1.06854,-1.05819 0.68237,-1.74746 -0.29172,-0.55234 -0.59967,-1.09708 -0.73912,-1.71235 -0.19012,-0.56809 -0.43489,-1.11992 -0.75323,-1.62826 0.0818,-0.27973 -0.51585,-0.67479 -0.23838,-0.17256 0.47173,0.97133 1.18304,1.80728 1.61995,2.79701 0.42212,0.64732 0.84446,1.31207 1.05038,2.06365 0.32302,0.64483 0.61065,1.31084 0.81158,2.00256 0.17703,0.34252 0.47606,0.70521 0.34102,1.11593"
       id="path5539"
       inkscape:connector-curvature="0"
       inkscape:export-filename="/home/avp/graph/моё/guile-prime/guile-prime-2015-10-20.png"
       inkscape:export-xdpi="299"
       inkscape:export-ydpi="299" />
    <path
       style="fill:none;stroke:#000000;stroke-width:1px;stroke-linecap:round;stroke-linejoin:round;stroke-opacity:1;display:inline"
       d="m 343.95694,366.97368 c 0.67807,0.13513 1.31957,-0.21206 1.98622,-0.2621 0.77836,-0.49663 1.74881,-0.46756 2.57716,-0.84349 0.7167,-0.24226 1.46633,-0.36373 2.21851,-0.41065 0.61295,-0.11215 1.22637,-0.24264 1.84888,-0.27385 0.33448,-0.10861 0.97723,-0.30575 1.14068,-0.24415 -0.63415,-0.0371 -1.28595,-0.0165 -1.88425,0.2174 -0.85769,0.21024 -1.72642,0.37163 -2.58471,0.57922 -0.59683,-0.0362 -1.30936,-0.11358 -1.76263,0.36527 0.84024,-0.63123 1.59984,-1.38061 2.17704,-2.26137 0.50377,-0.54137 0.87608,-1.19463 1.37896,-1.7322 0.19055,-0.15614 0.62695,-0.59535 0.72625,-0.48163 -0.45585,0.53548 -1.02444,0.99899 -1.30191,1.66259 -0.40256,0.58783 -0.9044,1.11655 -1.17952,1.78287 -0.48733,0.85038 -0.99591,1.6947 -1.6438,2.43404 -0.37825,0.51033 -0.62839,1.09897 -0.85106,1.68889 -0.13586,0.27977 -0.41416,0.27963 -0.13654,-0.0101 0.4687,-0.54994 0.79783,-1.20319 1.22607,-1.7789 0.52018,-0.50391 0.68092,-1.24333 1.07203,-1.83215 0.25264,-0.63749 -0.24482,-1.22461 -0.69753,-1.61418 -0.38304,-0.27313 -0.88812,-0.82045 -0.97221,-1.0991 0.35529,0.6664 1.09617,1.02726 1.39576,1.73045 0.18366,0.55742 0.74255,0.79395 1.01682,1.27601 0.49254,0.80685 0.98553,1.6132 1.48396,2.41642 0.26858,0.44616 0.50683,0.91243 0.82931,1.32135 0.0663,0.12119 0.0856,0.27488 0.0178,0.40036"
       id="path5541"
       inkscape:connector-curvature="0"
       inkscape:export-filename="/home/avp/graph/моё/guile-prime/guile-prime-2015-10-20.png"
       inkscape:export-xdpi="299"
       inkscape:export-ydpi="299" />
    <path
       style="fill:none;stroke:#000000;stroke-width:1px;stroke-linecap:round;stroke-linejoin:round;stroke-opacity:1;display:inline"
       d="m 294.71201,393.49018 c 2.10782,-0.001 4.21565,0.002 6.32346,-0.004 1.13045,0.35703 2.36833,0.25191 3.46051,0.75115 0.26683,-0.0392 1.07796,0.54637 0.45296,0.3816 -0.58463,-0.21061 -1.12967,-0.55088 -1.75837,-0.61622 -1.08183,-0.32785 -2.1286,-0.77002 -3.23127,-1.02847 -0.57572,0.0583 0.0836,-0.60194 0.35753,-0.5805 0.7468,-0.47212 1.57895,-0.85343 2.16753,-1.53369 0.47861,-0.26162 0.99538,-1.10897 1.41302,-1.04457 -0.28609,0.58723 -0.79994,1.02801 -1.13112,1.5904 -1.0258,1.37241 -2.09914,2.7143 -3.30613,3.93238 -0.36887,0.38189 -0.67386,0.83085 -1.09215,1.15727 -0.22695,0.24953 -0.54104,0.99046 -0.82019,0.81987 0.17137,-0.59615 0.59062,-1.08323 0.89026,-1.61833 0.56768,-0.90421 1.24999,-1.77459 1.57181,-2.80267 0.11165,-0.84696 -0.57182,-1.47468 -0.99974,-2.11729 -0.55794,-0.86981 -0.95418,-1.83441 -1.54724,-2.6828 0.29811,0.8568 1.12907,1.45854 1.24252,2.39082 0.35305,0.86565 1.07105,1.54388 1.32144,2.45709 0.3647,0.53788 0.91092,1.02167 0.94883,1.71348 0.3066,0.72467 0.98081,1.30325 1.01805,2.13056 0.0609,0.12298 0.45312,0.90098 0.54697,0.49238"
       id="path5543"
       inkscape:connector-curvature="0"
       inkscape:export-filename="/home/avp/graph/моё/guile-prime/guile-prime-2015-10-20.png"
       inkscape:export-xdpi="299"
       inkscape:export-ydpi="299" />
    <path
       style="fill:none;stroke:#000000;stroke-width:1px;stroke-linecap:round;stroke-linejoin:round;stroke-opacity:1;display:inline"
       d="m 325.01658,402.8341 c 3.20379,-0.0919 6.3232,-1.08966 9.5395,-0.99236 0.65856,-0.6413 -2.15118,-0.14181 -2.65344,-0.004 -0.95062,0.45429 -2.55661,-0.18126 -0.9277,-0.93478 0.85798,-0.35874 2.60987,-2.74586 2.66798,-1.88927 -1.42639,2.08793 -3.71748,3.49315 -4.97052,5.69258 1.46634,-1.4879 0.0846,-3.55984 -0.82166,-4.95121 0.38348,-0.30522 1.90342,1.89748 2.56895,2.66958 1.1184,0.79206 1.43192,2.37738 2.67838,2.93505"
       id="path5545"
       inkscape:connector-curvature="0"
       inkscape:export-filename="/home/avp/graph/моё/guile-prime/guile-prime-2015-10-20.png"
       inkscape:export-xdpi="299"
       inkscape:export-ydpi="299" />
    <path
       style="fill:none;stroke:#000000;stroke-width:1px;stroke-linecap:round;stroke-linejoin:round;stroke-opacity:1;display:inline"
       d="m 328.02543,417.64332 c 0.31809,2.49066 -0.48913,3.93894 1.5151,5.32868 0.78009,0.47736 2.83484,1.23294 3.66984,1.58567 -2.58306,0.50901 -4.31727,0.57077 -4.40992,1.05448 -0.7757,1.29367 -0.55384,3.00957 -0.74411,4.69556 -0.2724,-2.67582 -1.10211,-3.41761 -1.63477,-3.86312 -1.05672,-0.70245 -3.8356,-1.58216 -5.00002,-1.64509 0.98277,-0.0642 3.29199,-0.30521 4.5287,-1.35817 1.06028,-1.58546 1.59654,-4.29054 2.07518,-5.79801 z"
       id="path5553"
       inkscape:connector-curvature="0"
       sodipodi:nodetypes="ccccccccc"
       inkscape:export-filename="/home/avp/graph/моё/guile-prime/guile-prime-2015-10-20.png"
       inkscape:export-xdpi="299"
       inkscape:export-ydpi="299" />
    <path
       style="fill:none;stroke:#000000;stroke-width:1px;stroke-linecap:round;stroke-linejoin:round;stroke-opacity:1"
       d="m 371.4836,265.95843 c 2.57434,-0.74469 5.21141,-1.6066 7.9268,-1.25903 -1.18053,-0.44254 -3.60735,0.69232 -4.04171,-0.18972 0.89753,-0.83726 2.73276,-3.26567 2.86811,-3.05893 -1.52111,2.24259 -2.92935,4.56594 -4.50508,6.75486 -1.64178,1.99985 1.00399,-1.00132 1.42964,-1.751 1.7928,-1.56078 -2.10214,-3.65131 -1.32682,-4.186 1.55451,2.0786 3.13634,4.14424 4.49141,6.36158 0.0773,0.02 0.15454,0.0401 0.23181,0.0601"
       id="path6073"
       inkscape:connector-curvature="0"
       inkscape:export-filename="/home/avp/graph/моё/guile-prime/guile-prime-2015-10-20.png"
       inkscape:export-xdpi="299"
       inkscape:export-ydpi="299" />
    <path
       style="fill:none;stroke:#000000;stroke-width:1px;stroke-linecap:round;stroke-linejoin:round;stroke-opacity:1"
       d="m 411.21937,288.08775 c -0.0327,2.69837 -1.72814,9.74392 -3.97353,11.34154 -0.93188,0.63347 -1.3467,1.0056 -4.03481,1.87852 2.11817,0.2587 4.19361,0.1708 6.14562,1.25173 2.00581,2.87419 0.91478,6.84437 1.76888,7.55996 -0.0132,-2.6751 0.14521,-6.48674 1.95131,-8.48816 1.22509,-1.03224 1.92949,-0.72981 7.4168,-1.72126 -2.03654,0.008 -5.41719,-1.3236 -6.76878,-2.51043 -2.63654,-3.01678 -1.96449,-4.7566 -2.50549,-9.3119 z"
       id="path6075"
       inkscape:connector-curvature="0"
       sodipodi:nodetypes="ccccccccc"
       inkscape:export-filename="/home/avp/graph/моё/guile-prime/guile-prime-2015-10-20.png"
       inkscape:export-xdpi="299"
       inkscape:export-ydpi="299" />
    <path
       style="fill:none;stroke:#000000;stroke-width:1px;stroke-linecap:round;stroke-linejoin:round;stroke-opacity:1"
       d="m 445.90181,304.43219 c -0.33089,2.26302 -0.26215,5.81169 -1.82857,7.21483 -1.15884,0.57428 -3.75245,0.47799 -4.74675,0.84347 2.8441,0.32352 4.58512,0.0915 5.64509,1.38696 0.77837,0.7589 0.63816,3.40237 1.04617,5.12906 0.23501,-0.44508 0.0486,-1.18312 0.22573,-1.78093 -0.0483,-1.62983 -0.0668,-3.13242 0.90021,-4.66813 0.67229,-1.45569 3.45381,-0.80728 5.12307,-1.6102 -1.93427,-0.95269 -5.20882,0.70184 -5.50732,-2.09648 -0.27189,-1.47717 -0.85721,-3.42621 -0.85763,-4.41858 z"
       id="path6079"
       inkscape:connector-curvature="0"
       sodipodi:nodetypes="cccccccccc"
       inkscape:export-filename="/home/avp/graph/моё/guile-prime/guile-prime-2015-10-20.png"
       inkscape:export-xdpi="299"
       inkscape:export-ydpi="299" />
    <path
       style="fill:none;stroke:#000000;stroke-width:1px;stroke-linecap:round;stroke-linejoin:round;stroke-opacity:1"
       d="m 437.30545,274.18758 c 0.14994,3.13698 -0.29684,8.45186 -1.19981,10.33723 -0.39147,1.88818 -2.79774,1.43444 -5.99362,2.29485 3.28732,0.29979 5.18759,-0.0783 6.87326,0.89898 1.33781,1.95753 1.46656,5.0718 1.57577,6.34634 0.0865,-1.63624 0.0327,-3.81597 0.36395,-5.61589 0.90252,-2.01993 0.95209,-1.39697 4.68997,-2.08968 -3.34992,-0.12158 -4.85239,-1.24351 -5.60308,-3.89276 -0.42532,-2.87223 -0.51484,-5.90678 -0.70644,-8.27907 z"
       id="path6081"
       inkscape:connector-curvature="0"
       sodipodi:nodetypes="ccccccccc"
       inkscape:export-filename="/home/avp/graph/моё/guile-prime/guile-prime-2015-10-20.png"
       inkscape:export-xdpi="299"
       inkscape:export-ydpi="299" />
    <path
       style="fill:none;stroke:#000000;stroke-width:1px;stroke-linecap:round;stroke-linejoin:round;stroke-opacity:1"
       d="m 398.0001,281.36325 c 0.99898,0.57104 2.18376,0.51965 3.29229,0.52762 0.79458,0.0566 1.54235,-0.41052 2.33968,-0.2497 0.712,-0.0263 1.37034,-0.42491 2.09682,-0.2929 0.6454,0.0526 1.29115,0.004 1.93731,0.013 -1.49304,0.0101 -2.98612,-0.003 -4.47917,0.003 -1.78059,1.16504 -0.0757,-0.2668 0.44989,-1.05938 0.41795,-0.32132 0.87957,-0.59152 1.23125,-0.9954 0.40674,-0.39495 0.75746,-0.86276 1.22626,-1.18342 0.35165,-0.1556 0.82534,-0.41679 0.94054,-0.72262 -0.31697,0.32266 -0.56221,0.73384 -0.91079,1.04169 -0.40285,0.42978 -0.73241,0.92549 -1.20488,1.28872 -0.44974,0.37024 -0.81013,0.84286 -0.99272,1.39879 -0.47852,0.52384 -0.90275,1.07436 -1.29916,1.65747 -0.43138,0.38901 -0.86731,0.77811 -1.02414,1.35226 -0.2869,0.47638 -0.68348,0.87858 -1.00323,1.32909 -0.4338,0.38527 -0.64685,0.83118 -0.94609,1.25377 -0.30133,-0.17759 0.0134,-0.37599 0.0635,-0.40348 0.15768,-0.66459 0.6565,-1.20389 1.06613,-1.7292 0.52355,-0.42539 1.0052,-0.95519 1.15412,-1.63085 -0.0216,-0.57424 0.49216,-0.8903 0.63946,-1.34338 0.0806,-0.45637 0.0956,-0.81835 -0.30706,-1.08242 -0.13802,-0.7083 -0.72069,-1.06817 -1.12867,-1.59158 -0.19351,-0.62613 -0.46727,-1.18016 -0.88075,-1.70253 -0.0958,-0.1535 -0.33513,-0.36514 -0.0686,-0.10051 0.3828,0.5356 0.61512,1.16422 1.04253,1.67348 0.54292,0.85674 1.03561,1.74383 1.57941,2.60018 0.34177,0.53866 0.37652,1.21292 0.77314,1.72926 0.50012,0.60194 0.55393,1.45691 1.10288,2.03128 0.19459,0.19895 0.3339,0.45397 0.4305,0.71364"
       id="path6083"
       inkscape:connector-curvature="0"
       sodipodi:nodetypes="cccccccccccccccccccccccccccccc"
       inkscape:export-filename="/home/avp/graph/моё/guile-prime/guile-prime-2015-10-20.png"
       inkscape:export-xdpi="299"
       inkscape:export-ydpi="299" />
    <path
       style="fill:none;stroke:#000000;stroke-width:1px;stroke-linecap:round;stroke-linejoin:round;stroke-opacity:1"
       d="m 402.29325,265.95843 c 1.70229,0.91331 3.72892,0.40237 5.50322,1.00972 -1.03028,0.0282 -3.63851,-0.27414 -1.72833,-1.53441 0.5927,-0.75145 1.68826,-1.09831 0.64525,-4.6e-4 -0.67306,0.96282 -2.42531,2.80152 -2.53735,3.10994 1.00174,-0.7589 2.63118,-2.6079 0.95365,-3.55468 0.69912,1.66156 1.49325,3.36732 2.65618,4.75476"
       id="path6085"
       inkscape:connector-curvature="0"
       inkscape:export-filename="/home/avp/graph/моё/guile-prime/guile-prime-2015-10-20.png"
       inkscape:export-xdpi="299"
       inkscape:export-ydpi="299" />
    <path
       style="fill:none;stroke:#000000;stroke-width:1px;stroke-linecap:round;stroke-linejoin:round;stroke-opacity:1"
       d="m 453.81103,295.00031 c 1.04349,-0.63364 2.32215,-0.69324 3.39258,-1.28899 1.27161,-0.59588 3.09367,-0.87398 4.16177,-1.17687 -1.16377,0.51017 -2.41268,0.83034 -3.63706,1.11925 -0.52215,0.30734 -2.4389,1.39577 -1.53943,0.11791 0.71971,-1.15784 1.58877,-2.21947 2.13845,-3.47999 0.57631,-1.14333 -0.47507,0.40181 -0.49653,0.84267 -0.56566,1.68948 -1.86257,3.11609 -2.05063,4.92221 -0.5315,0.93478 -0.60407,2.0824 -1.15145,2.96979 -0.0494,-0.86437 0.21574,-1.83183 0.4593,-2.69388 0.19247,-0.88276 0.65941,-1.77969 0.59452,-2.66995 -0.45734,-1.0635 -1.64028,-1.60528 -2.04561,-2.71149 -0.32379,-0.55223 -0.65655,-0.81305 -0.0997,-0.18068 0.67296,1.06253 1.75494,1.74918 2.45788,2.79028 0.83223,1.10836 2.02996,1.87136 2.75084,3.07466 0.28484,0.32945 1.39574,1.50039 1.23751,1.26254 l -0.11139,-0.11975"
       id="path6087"
       inkscape:connector-curvature="0"
       inkscape:export-filename="/home/avp/graph/моё/guile-prime/guile-prime-2015-10-20.png"
       inkscape:export-xdpi="299"
       inkscape:export-ydpi="299" />
    <path
       style="fill:none;stroke:#000000;stroke-width:1px;stroke-linecap:round;stroke-linejoin:round;stroke-opacity:1"
       d="m 406.47128,322.98872 c 2.29578,-0.4799 4.67039,-0.21879 6.98664,-0.17481 0.90926,0.10629 1.26374,0.24133 0.16078,0.17561 -1.32637,-0.002 -2.65279,-0.007 -3.97913,0.006 1.57806,-0.83503 2.97992,-1.94318 4.37119,-3.0316 0.64053,-0.49558 1.16104,-0.99281 0.12005,-0.23895 -1.81478,1.08401 -2.90964,2.96332 -4.43003,4.37941 -0.51933,0.28793 -1.4169,2.42026 -1.54017,1.85824 0.54282,-1.64295 1.98261,-2.85107 2.35294,-4.5489 0.1937,-0.62221 -0.70865,-2.39924 -0.84156,-2.19333 0.95946,2.00376 1.91987,4.02594 3.02895,5.95748 0.0737,0.18291 -0.003,0.68536 0.33621,0.58689"
       id="path6089"
       inkscape:connector-curvature="0"
       inkscape:export-filename="/home/avp/graph/моё/guile-prime/guile-prime-2015-10-20.png"
       inkscape:export-xdpi="299"
       inkscape:export-ydpi="299" />
    <path
       style="fill:none;stroke:#000000;stroke-width:1px;stroke-linecap:round;stroke-linejoin:round;stroke-opacity:1"
       d="m 472.75139,328.84042 c 1.88275,-0.53675 3.85818,-0.0961 5.77633,-0.26701 0.70422,0.31028 3.11087,-0.26605 1.18685,-0.4916 -1.1161,-0.26218 -2.87296,0.43868 -3.60335,-0.22782 0.98625,-0.72563 2.08461,-1.71236 3.21224,-2.06957 -1.29089,1.76676 -2.98505,3.21557 -4.51473,4.76974 -0.68545,0.60129 -0.84045,0.98108 -0.20517,0.0772 0.62334,-1.04575 2.42243,-2.3213 1.20872,-3.55877 -0.35767,-0.67813 -1.15567,-3.2984 -0.34549,-1.41658 0.99576,2.13135 2.06946,4.24222 2.84061,6.46761"
       id="path6091"
       inkscape:connector-curvature="0"
       inkscape:export-filename="/home/avp/graph/моё/guile-prime/guile-prime-2015-10-20.png"
       inkscape:export-xdpi="299"
       inkscape:export-ydpi="299" />
    <path
       style="fill:none;stroke:#000000;stroke-width:1px;stroke-linecap:round;stroke-linejoin:round;stroke-opacity:1"
       d="m 382.65668,384.26068 c 0.74877,2.13186 0.55885,6.44087 2.01908,8.69175 1.22679,1.92665 3.9486,2.28413 6.20244,2.56318 -2.44775,0.90792 -6.43692,0.88613 -7.1611,1.88618 -1.25432,1.46776 -0.60192,4.9911 -1.86496,7.66585 -1.16822,-2.34015 -0.26857,-5.89591 -1.92056,-7.50884 -4.54418,-0.97783 -5.83238,-1.51543 -7.71008,-2.00351 2.43694,-0.60776 5.39833,-0.59942 7.47099,-2.08768 2.45434,-2.31336 2.27103,-6.3992 2.96419,-9.20693 z"
       id="path6097"
       inkscape:connector-curvature="0"
       sodipodi:nodetypes="ccccccccc"
       inkscape:export-filename="/home/avp/graph/моё/guile-prime/guile-prime-2015-10-20.png"
       inkscape:export-xdpi="299"
       inkscape:export-ydpi="299" />
    <path
       style="fill:none;stroke:#000000;stroke-width:1px;stroke-linecap:round;stroke-linejoin:round;stroke-opacity:1"
       d="m 387.75808,375.90661 c 1.68359,0 3.36717,0 5.05076,0 0.29582,-0.19918 0.21419,0.51561 -0.0289,0.25231 -0.6638,-0.006 -1.32805,0.0419 -1.99142,9.5e-4 -0.27468,-0.32393 -0.76929,-0.34528 -1.13741,-0.18449 -0.33868,-0.2971 0.24767,-0.49815 0.44842,-0.63114 0.26235,-0.2513 0.50286,-0.55961 0.86382,-0.67076 0.4421,-0.27373 0.79418,-0.68488 1.01143,-1.15613 -0.19397,-0.15805 0.33896,-0.21218 0.0625,-0.0819 -0.64025,0.35889 -0.77436,1.15363 -1.25435,1.66116 -0.30354,0.36167 -0.62383,0.73095 -0.76406,1.19141 -0.10265,0.32738 -0.3977,0.52986 -0.55099,0.8179 -0.10977,0.24382 -0.093,0.55806 -0.30104,0.74698 0.0552,-0.47498 0.51024,-0.77009 0.60773,-1.23248 0.15807,-0.57624 -0.14847,-1.12955 -0.34366,-1.65392 -0.17411,-0.43743 -0.37872,-0.86247 -0.62492,-1.26364 0.20595,0.15899 0.56079,0.4879 0.68957,0.80554 0.35338,0.67607 0.87631,1.25076 1.41511,1.78568 0.3401,0.3586 0.77771,0.6312 1.02352,1.07168 0.0842,0.13642 0.30448,0.55321 0.41387,0.36959 l -0.0178,-0.0275 -0.0266,-0.0333"
       id="path6099"
       inkscape:connector-curvature="0"
       inkscape:export-filename="/home/avp/graph/моё/guile-prime/guile-prime-2015-10-20.png"
       inkscape:export-xdpi="299"
       inkscape:export-ydpi="299" />
    <path
       style="fill:none;stroke:#000000;stroke-width:1px;stroke-linecap:round;stroke-linejoin:round;stroke-opacity:1"
       d="m 344.41561,448.16841 c 1.5299,-0.4286 3.18883,-0.46651 4.62219,-1.11049 -0.40584,0.95349 -2.81091,0.83646 -1.5466,-0.40387 0.23353,-0.71127 1.03733,-2.899 1.2588,-2.39373 -0.96859,1.70646 -1.35913,3.64464 -2.14949,5.414 1.03775,-0.41886 0.48113,-2.91418 -0.64052,-3.71456 -1.01992,-1.24461 0.77346,0.96234 1.1657,1.38051 0.52351,0.61629 1.04839,1.2315 1.58307,1.83816"
       id="path6101"
       inkscape:connector-curvature="0"
       inkscape:export-filename="/home/avp/graph/моё/guile-prime/guile-prime-2015-10-20.png"
       inkscape:export-xdpi="299"
       inkscape:export-ydpi="299" />
    <path
       style="fill:none;stroke:#000000;stroke-width:1px;stroke-linecap:round;stroke-linejoin:round;stroke-opacity:1"
       d="m 449.13907,405.54888 c -0.27642,2.33117 -0.16946,4.96262 -1.48367,6.39815 -0.88583,0.68182 -3.38368,0.50617 -4.29914,1.12749 1.50225,0.46252 3.69429,0.39356 4.57919,1.82668 0.66809,1.83879 0.6322,3.76746 1.06605,5.8004 0.30247,-0.60492 0.18109,-4.55936 0.67295,-6.03993 0.61625,-0.7784 3.99714,-0.96523 4.80966,-1.15007 4.7385,-0.70796 -1.92141,-0.66733 -3.53166,-1.7506 -1.06547,-1.58309 -1.81251,-4.42788 -1.81338,-6.21212 z"
       id="path6103"
       inkscape:connector-curvature="0"
       sodipodi:nodetypes="ccccccccc"
       inkscape:export-filename="/home/avp/graph/моё/guile-prime/guile-prime-2015-10-20.png"
       inkscape:export-xdpi="299"
       inkscape:export-ydpi="299" />
    <path
       style="fill:none;stroke:#000000;stroke-width:1px;stroke-linecap:round;stroke-linejoin:round;stroke-opacity:1"
       d="m 470.98362,402.8341 c 1.04893,-0.27362 2.16331,0.29708 3.18553,-0.15116 0.62623,-0.29006 1.38143,0.13816 1.97205,-0.27563 0.25896,-0.11819 0.79789,0.11832 0.81201,-0.31635 -0.88719,-0.1374 -1.72275,0.30189 -2.59733,0.35269 -0.57192,0.0701 -1.1262,0.30284 -1.70239,0.29982 0.42585,-0.14322 0.66321,-0.57979 1.07554,-0.76083 0.40018,-0.25612 0.74737,-0.58406 1.05869,-0.93971 0.37676,-0.3334 0.87681,-0.56281 1.10467,-1.03638 -0.49154,0.29113 -0.79665,0.79593 -1.16768,1.21446 -0.34258,0.44292 -0.71109,0.86807 -1.05247,1.30998 -0.22975,0.45957 -0.50924,0.91122 -0.93328,1.21485 -0.11335,0.0969 -0.26596,0.48723 -0.0305,0.18884 0.52174,-0.65161 0.85208,-1.43106 1.34997,-2.09845 0.18128,-0.39373 -0.19585,-0.71726 -0.4424,-0.97138 -0.22183,-0.24059 -0.29649,-0.57977 -0.50603,-0.8348 -0.18671,-0.30544 -0.46413,-0.55813 -0.60168,-0.88852 -0.058,-0.21687 -0.0551,-0.85603 -0.28285,-0.7521 0.0737,0.3767 0.32917,0.69754 0.48346,1.04713 0.34965,0.61897 0.63997,1.2717 0.89614,1.93586 -0.084,0.63833 0.86987,0.96796 1.05966,1.58793 0.23008,0.52696 0.2974,1.13797 0.69864,1.56163 0.11008,0.29179 0.28168,0.55653 0.41805,0.837"
       id="path6105"
       inkscape:connector-curvature="0"
       sodipodi:nodetypes="ccccccccccccccccccccccc"
       inkscape:export-filename="/home/avp/graph/моё/guile-prime/guile-prime-2015-10-20.png"
       inkscape:export-xdpi="299"
       inkscape:export-ydpi="299" />
    <path
       style="fill:none;stroke:#000000;stroke-width:1px;stroke-linecap:round;stroke-linejoin:round;stroke-opacity:1"
       d="m 427.7996,378.3379 c 0.65715,-0.29561 1.42837,-0.11697 2.06772,-0.41677 0.59769,-0.0874 1.19378,-0.14718 1.76395,-0.36654 0.60156,-0.12606 1.25768,-0.3526 1.82932,-0.26798 0.24538,0.66465 -0.82492,0.0281 -1.16617,0.32549 -0.64881,0.27165 -1.34881,0.27706 -2.03545,0.18882 -0.27379,-0.0731 -1.23213,0.386 -0.59199,-0.0805 0.44024,-0.42604 0.92579,-0.79009 1.4301,-1.12176 0.29215,-0.66367 0.92858,-0.97392 1.40239,-1.47508 -0.27532,0.25752 -0.88298,0.99559 -1.40242,1.29626 -0.9661,1.12149 -1.68236,2.43324 -2.58502,3.60513 0.15932,-0.55216 0.86097,-0.72406 0.99978,-1.32544 0.48651,-0.45182 0.79245,-1.16254 0.32299,-1.74939 -0.46355,-0.68366 -0.85488,-1.41128 -1.28923,-2.11024 -0.0813,-0.24669 -0.4904,-0.8522 -0.1762,-0.2768 0.69876,1.08652 1.43125,2.15675 2.27039,3.13937 0.17062,0.63312 0.72165,1.01101 0.93386,1.60345"
       id="path6107"
       inkscape:connector-curvature="0"
       sodipodi:nodetypes="ccccccccccccccccc"
       inkscape:export-filename="/home/avp/graph/моё/guile-prime/guile-prime-2015-10-20.png"
       inkscape:export-xdpi="299"
       inkscape:export-ydpi="299" />
    <path
       style="fill:none;stroke:#000000;stroke-width:1px;stroke-linecap:round;stroke-linejoin:round;stroke-opacity:1"
       d="m 482.60038,374.04475 c 0.6732,-0.1913 1.41762,0.20968 2.05433,-0.16355 0.42571,-0.1747 0.82524,-0.42996 1.28535,-0.50776 0.28181,-0.27026 0.7056,-0.44548 1.0917,-0.31349 0.044,-0.50068 0.85569,0.13663 0.33508,0.23993 -0.76999,0.28251 -1.55601,0.54689 -2.26256,0.96933 -0.35976,0.27187 -0.84753,-0.19658 -0.48569,-0.53016 0.21206,-0.24852 0.5311,-0.3822 0.70734,-0.66619 0.26633,-0.37167 0.4855,-0.7791 0.80763,-1.10781 0.20532,-0.27314 0.36094,-0.58016 0.57192,-0.84931 0.48784,0.0486 0.10762,0.67598 -0.19278,0.74278 -0.42958,0.42128 -0.40995,1.09673 -0.80788,1.54108 -0.35416,0.54022 -0.80828,1.02768 -1.05675,1.62901 -0.12111,0.40839 -0.35713,0.79485 -0.68039,1.07165 0.0477,-0.26407 0.22684,-0.60202 0.30586,-0.8996 0.12343,-0.37143 0.32223,-0.72711 0.63526,-0.96926 0.23097,-0.3237 -0.0503,-0.69652 -0.24143,-0.95868 -0.39082,-0.64106 -0.66532,-1.36165 -1.18274,-1.9182 -0.12471,-0.12258 -0.15999,-0.37044 -0.0118,-0.11473 0.43209,0.58466 0.85314,1.18038 1.32592,1.73268 0.39505,0.36955 0.79774,0.75447 1.0315,1.25029 0.45388,0.56956 1.15484,0.95247 1.41578,1.66439 0.0993,0.17148 0.2271,0.33572 0.40529,0.43028"
       id="path6109"
       inkscape:connector-curvature="0"
       inkscape:export-filename="/home/avp/graph/моё/guile-prime/guile-prime-2015-10-20.png"
       inkscape:export-xdpi="299"
       inkscape:export-ydpi="299" />
    <path
       style="fill:none;stroke:#000000;stroke-width:1px;stroke-linecap:round;stroke-linejoin:round;stroke-opacity:1"
       d="m 448.25519,332.88103 c 0.58423,0.6808 1.47142,0.19773 2.19407,0.27442 0.85984,0.0748 1.59769,-0.56924 2.43406,-0.5231 -0.70369,0.0784 -1.39716,0.75556 -2.10457,0.40726 -0.0686,-0.79875 1.19004,-1.35901 1.41295,-1.57164 -0.74982,0.68371 -1.08591,1.69876 -1.80084,2.43199 -0.22009,0.28502 -0.65485,0.75902 -0.24136,0.18197 0.45592,-0.63389 1.31501,-1.29217 1.04956,-2.16713 -0.16509,-0.31919 -0.92025,-1.42114 -1.00654,-1.00671 0.41758,0.71985 1.27467,1.11964 1.49077,1.99502 0.37729,0.72196 0.9999,1.32229 1.34035,2.09357 0.13093,0.11087 0.14544,0.30206 0.28239,0.40792"
       id="path6111"
       inkscape:connector-curvature="0"
       inkscape:export-filename="/home/avp/graph/моё/guile-prime/guile-prime-2015-10-20.png"
       inkscape:export-xdpi="299"
       inkscape:export-ydpi="299" />
    <path
       style="fill:none;stroke:#000000;stroke-width:1px;stroke-linecap:round;stroke-linejoin:round;stroke-opacity:1"
       d="m 393.64568,400.79276 c 0.69242,0.005 1.43071,-0.0897 2.07102,0.23751 0.9082,0.0644 1.82528,0.0324 2.72968,-0.0463 0.85723,-0.22799 1.7502,-0.27016 2.63002,-0.19237 1.21659,0.01 2.43319,-0.003 3.64978,-0.002 -0.74702,0.0394 -1.49489,-0.0469 -2.24167,0.003 -0.73068,0.4914 -1.63269,0.15975 -2.44252,0.2573 -0.36065,-0.20474 -1.29938,0.34665 -1.25553,-0.2756 0.52782,-0.66293 1.14559,-1.24635 1.76555,-1.81965 0.3332,-0.57075 0.66963,-1.18023 1.34543,-1.34594 0.17591,-0.14953 0.48344,-0.90842 0.53862,-0.73329 -0.54328,0.78179 -1.294,1.39598 -1.8093,2.19945 -0.78814,0.93048 -1.71003,1.76068 -2.31527,2.83262 -0.45816,0.45228 -0.78992,0.99004 -1.04225,1.57877 -0.13869,0.29522 -0.60712,0.97048 -0.63232,0.96511 0.60509,-0.90793 0.9984,-1.96186 1.77618,-2.7481 0.52676,-0.69928 -0.12581,-1.40389 -0.42879,-2.02613 -0.39775,-0.77345 -1.07739,-1.38816 -1.35462,-2.22336 -0.0524,-0.45184 0.44702,0.35687 0.45693,0.5709 0.13945,0.59774 0.68429,0.92998 0.99175,1.43161 0.36798,0.46243 0.60742,1.00419 0.84054,1.53979 0.5132,0.88937 1.11158,1.73021 1.56711,2.65158 0.41268,0.6805 0.79747,1.38847 1.30679,1.99956 0.0311,0.0644 0.19035,0.57757 0.18617,0.19641"
       id="path6113"
       inkscape:connector-curvature="0"
       inkscape:export-filename="/home/avp/graph/моё/guile-prime/guile-prime-2015-10-20.png"
       inkscape:export-xdpi="299"
       inkscape:export-ydpi="299" />
    <path
       style="fill:none;stroke:#000000;stroke-width:1px;stroke-linecap:round;stroke-linejoin:round;stroke-opacity:1"
       d="m 430.98477,448.22439 c 0.59943,0.0708 1.30909,0.13449 1.78285,-0.31926 0.85883,0.0441 1.64059,-0.62114 2.50591,-0.36826 1.04356,0.0372 1.927,-0.639 2.9375,-0.77925 0.644,-0.36707 1.44225,-0.20522 2.09379,-0.5514 -1.13948,0.21288 -2.2171,0.65847 -3.34218,0.92795 -0.55938,0.001 -1.1934,-0.076 -1.66085,0.30054 -0.5419,0.11116 -0.57729,-0.65035 -0.27326,-0.93235 0.38591,-0.20319 0.69784,-0.52383 0.90404,-0.92358 0.28013,-0.54739 0.6483,-1.03686 1.03234,-1.51409 0.26689,-0.32453 0.45168,-0.70715 0.66849,-1.0595 0.14113,-0.21492 -0.35704,0.30438 -0.41947,0.44053 -0.28467,0.33919 -0.24364,0.82518 -0.48632,1.17468 -0.32111,0.39896 -0.78301,0.76908 -0.77281,1.32995 -0.14492,0.71544 -0.44726,1.39706 -0.87086,1.99092 -0.15905,0.70342 -0.37457,1.40995 -0.78154,2.0132 -0.0191,0.30467 -0.13509,0.28222 -0.037,-0.0214 0.0786,-1.007 -0.43976,-1.96492 -1.12847,-2.66497 -0.25834,-0.55156 -0.69827,-0.98775 -1.14122,-1.39399 -0.0805,-0.71828 1.02636,-0.60354 1.18548,-0.0527 0.50186,0.42195 1.05403,0.7797 1.5605,1.19609 0.57194,0.39538 1.16581,0.78572 1.58235,1.35487 0.31061,0.48999 0.97674,0.57517 1.1999,1.11858 0.0577,0.0824 0.14603,0.14809 0.24732,0.16187"
       id="path6121"
       inkscape:connector-curvature="0"
       inkscape:export-filename="/home/avp/graph/моё/guile-prime/guile-prime-2015-10-20.png"
       inkscape:export-xdpi="299"
       inkscape:export-ydpi="299" />
  </g>
  <g
     inkscape:groupmode="layer"
     id="layer4"
     inkscape:label="guile"
     style="display:none">
    <g
       id="g5966"
       transform="matrix(0.81766751,0,0,0.81766751,95.548435,109.54072)"
       inkscape:export-filename="/home/avp/graph/моё/guile-prime/guile-prime-2015-08-15-v1.png"
       inkscape:export-xdpi="299"
       inkscape:export-ydpi="299">
      <path
         sodipodi:nodetypes="ccccsz"
         id="path3698"
         d="m 426.051,284.40624 -0.15387,8.36058 c -10.10392,1.1739 -9.35794,11.37931 -8.56574,17.0289 -16.01829,7.70842 -20.40802,-9.09618 -18.51637,-15.07981 4.0166,12.05211 12.99372,10.3199 15.86866,3.29615 4.66617,-11.3999 6.67509,-12.55255 11.01616,-13.87549 l 0.35116,0.26967 z"
         style="fill:url(#linearGradient5993);fill-opacity:1;stroke:#000000;stroke-width:0.92584974;stroke-linecap:butt;stroke-linejoin:miter;stroke-miterlimit:4;stroke-opacity:1;stroke-dasharray:none"
         inkscape:connector-curvature="0" />
      <path
         sodipodi:nodetypes="cccc"
         id="path3723"
         d="m 413.0886,300.68221 c 0.49802,-0.54328 0.83664,-1.19285 1.14585,-1.86201 -2.39178,-0.95972 -4.53356,-1.84694 -6.86183,-2.29854 0.18735,2.09146 3.61026,2.85901 5.71598,4.16055 z"
         style="fill:url(#linearGradient5995);fill-opacity:1;stroke:#000000;stroke-width:0.92584974;stroke-linecap:butt;stroke-linejoin:miter;stroke-miterlimit:4;stroke-opacity:1;stroke-dasharray:none"
         inkscape:connector-curvature="0" />
      <path
         sodipodi:nodetypes="ccccc"
         id="path3721"
         d="m 416.66939,293.35351 c -7.28537,-3.28316 -9.06396,1.18255 -14.27545,2.2201 0.39104,1.29672 2.73452,1.00222 4.40001,0.97993 2.38606,0.0508 4.95419,1.39026 7.51212,2.26666 1.03954,-2.03204 1.69537,-3.74431 2.36332,-5.46669 z"
         style="fill:url(#linearGradient5997);fill-opacity:1;stroke:#000000;stroke-width:0.92584974;stroke-linecap:butt;stroke-linejoin:miter;stroke-miterlimit:4;stroke-opacity:1;stroke-dasharray:none"
         inkscape:connector-curvature="0" />
      <path
         sodipodi:nodetypes="ccccsc"
         id="path3725"
         d="m 457.08469,284.16279 -0.0478,7.63904 c 11.01066,5.31474 7.55669,10.46322 8.30746,15.66003 15.02802,8.1781 19.59843,-10.87956 17.71302,-14.65741 -4.27479,5.99792 -2.88155,8.844 -8.93555,9.14191 -7.34739,0.36156 -8.56094,-16.24636 -17.03718,-17.78357 z"
         style="fill:url(#linearGradient5999);fill-opacity:1;stroke:#000000;stroke-width:0.92584974;stroke-linecap:butt;stroke-linejoin:miter;stroke-miterlimit:4;stroke-opacity:1;stroke-dasharray:none"
         inkscape:connector-curvature="0" />
      <path
         sodipodi:nodetypes="cccc"
         id="path3727"
         d="m 463.50954,289.1385 c 1.3659,2.49342 2.69366,4.98607 4.05122,7.39346 2.58314,-4.02687 8.37038,-4.61283 7.83234,-6.95458 -5.09182,1.37551 -7.07565,-3.5055 -11.88356,-0.43888 z"
         style="fill:url(#linearGradient6001);fill-opacity:1;stroke:#000000;stroke-width:0.92584974;stroke-linecap:butt;stroke-linejoin:miter;stroke-miterlimit:4;stroke-opacity:1;stroke-dasharray:none"
         inkscape:connector-curvature="0" />
      <path
         sodipodi:nodetypes="cc"
         id="path3729"
         d="m 424.90304,303.62668 c 5.142,-0.34191 10.12508,0.74648 14.99886,2.81858"
         style="fill:none;stroke:#000000;stroke-width:0.46292487px;stroke-linecap:butt;stroke-linejoin:miter;stroke-opacity:1"
         inkscape:connector-curvature="0" />
      <path
         sodipodi:nodetypes="cc"
         id="path3731"
         d="m 440.60654,307.90488 c 2.08179,-2.24013 5.46806,-4.38181 14.59621,-6.09014"
         style="fill:none;stroke:#000000;stroke-width:0.46292487px;stroke-linecap:butt;stroke-linejoin:miter;stroke-opacity:1"
         inkscape:connector-curvature="0" />
      <path
         id="path3964"
         d="m 440.32776,306.97136 -0.53645,-0.25145 0.0725,-0.18171 c 0.0419,-0.10504 0.0545,-0.19956 0.0299,-0.22402 -0.073,-0.0725 -1.73295,-0.72025 -2.74448,-1.07103 -2.8981,-1.00501 -5.73767,-1.61564 -8.58807,-1.84682 -0.49508,-0.0401 -1.16855,-0.073 -1.4966,-0.073 -0.36148,0 -0.60868,-0.0198 -0.62751,-0.0503 -0.0742,-0.12009 0.40099,-1.38705 0.8136,-2.16913 1.1827,-2.24176 3.00131,-3.71767 5.14621,-4.17644 0.50651,-0.10835 1.48246,-0.14292 2.05671,-0.0729 0.54427,0.0664 1.22831,0.22788 1.75484,0.41427 1.02834,0.36405 2.48615,1.21588 3.53316,2.06451 0.28473,0.23079 0.54009,0.41961 0.56748,0.41961 0.0274,0 0.27206,-0.20878 0.54374,-0.46395 0.47093,-0.44232 1.32427,-1.11504 1.7574,-1.38544 2.08927,-1.30427 4.1401,-1.64633 6.1154,-1.01999 1.94038,0.61527 3.76337,2.3419 4.77591,4.52348 0.21324,0.45944 0.21522,0.46828 0.11039,0.49168 -0.0587,0.0131 -0.45415,0.10135 -0.87872,0.1961 -3.24062,0.72321 -5.9929,1.63721 -8.08145,2.68376 -1.34171,0.67232 -2.21215,1.23379 -3.1828,2.05303 -0.26046,0.21983 -0.50306,0.39776 -0.5391,0.39541 -0.036,-0.002 -0.30693,-0.11744 -0.60198,-0.25573 l 0,0 z"
         style="fill:#e5c988;fill-opacity:1;stroke:#000000;stroke-width:0.00482474;stroke-miterlimit:4;stroke-opacity:1;stroke-dasharray:none"
         inkscape:connector-curvature="0" />
      <path
         sodipodi:nodetypes="ccc"
         id="path3735"
         d="m 445.33773,314.901 c 17.09296,-3.67424 6.15944,-26.35325 -4.98285,-15.30085 -12.82109,-10.92756 -20.99791,13.76704 -5.63715,14.49554"
         style="fill:none;stroke:#000000;stroke-width:0.92584974;stroke-linecap:butt;stroke-linejoin:miter;stroke-miterlimit:4;stroke-opacity:1;stroke-dasharray:none"
         inkscape:connector-curvature="0" />
      <path
         transform="matrix(0.48646528,0,0,0.4582187,392.25184,280.80743)"
         d="m 98.429841,67.329582 a 5.5859232,6.7619066 0 1 1 -11.171846,0 5.5859232,6.7619066 0 1 1 11.171846,0 z"
         sodipodi:ry="6.7619066"
         sodipodi:rx="5.5859232"
         sodipodi:cy="67.329582"
         sodipodi:cx="92.843918"
         id="path3768"
         style="fill:#000000;fill-opacity:1;stroke:#000000;stroke-width:1;stroke-miterlimit:4;stroke-opacity:1;stroke-dasharray:none"
         sodipodi:type="arc" />
      <path
         transform="matrix(0.50061851,0,0,0.49726795,390.63963,278.31646)"
         d="m 96.94373,65.683205 a 2.6886256,3.0189381 0 1 1 -5.377252,0 2.6886256,3.0189381 0 1 1 5.377252,0 z"
         sodipodi:ry="3.0189381"
         sodipodi:rx="2.6886256"
         sodipodi:cy="65.683205"
         sodipodi:cx="94.255104"
         id="path3770"
         style="fill:#ffffff;fill-opacity:1;stroke:#000000;stroke-width:1;stroke-miterlimit:4;stroke-opacity:1;stroke-dasharray:none"
         sodipodi:type="arc" />
      <path
         transform="matrix(0.50086081,0.08011969,-0.08831528,0.45438133,396.11837,272.57839)"
         d="m 111.95366,66.800385 a 5.0567303,7.055903 0 1 1 -10.11346,0 5.0567303,7.055903 0 1 1 10.11346,0 z"
         sodipodi:ry="7.055903"
         sodipodi:rx="5.0567303"
         sodipodi:cy="66.800385"
         sodipodi:cx="106.89693"
         id="path3774"
         style="fill:#000000;fill-opacity:1;stroke:#000000;stroke-width:1;stroke-miterlimit:4;stroke-opacity:1;stroke-dasharray:none"
         sodipodi:type="arc" />
      <path
         d="m 111.17832,65.448006 a 2.9878089,3.3166795 0 1 1 -5.97562,0 2.9878089,3.3166795 0 1 1 5.97562,0 z"
         sodipodi:ry="3.3166795"
         sodipodi:rx="2.9878089"
         sodipodi:cy="65.448006"
         sodipodi:cx="108.19051"
         id="path3772"
         style="fill:#ffffff;fill-opacity:1;stroke:#000000;stroke-width:1;stroke-miterlimit:4;stroke-opacity:1;stroke-dasharray:none"
         sodipodi:type="arc"
         transform="matrix(0.46292485,0,0,0.46292485,394.30133,280.46335)" />
      <path
         sodipodi:nodetypes="cccccc"
         id="path3776"
         d="m 458.04965,320.2605 c -7.35771,-5.53115 -11.57772,-0.92509 -17.25723,-1.03435 -5.74728,-0.55593 -12.17484,-3.10035 -16.16844,1.46987 -0.82028,5.92223 -0.82509,13.28505 8.92802,16.71283 4.88139,1.32226 9.76277,1.27087 14.64416,0.2722 4.96501,-1.45732 11.50254,-4.94709 9.85349,-17.42055 z"
         style="fill:url(#linearGradient6003);fill-opacity:1;stroke:#000000;stroke-width:0.92584974;stroke-linecap:butt;stroke-linejoin:miter;stroke-miterlimit:4;stroke-opacity:1;stroke-dasharray:none"
         inkscape:connector-curvature="0" />
      <path
         sodipodi:nodetypes="cc"
         id="path3780"
         d="m 431.10224,328.80746 c -3.47807,0.1649 -3.45361,1.1011 -4.19182,1.63317"
         style="fill:none;stroke:#000000;stroke-width:0.92584974;stroke-linecap:butt;stroke-linejoin:miter;stroke-miterlimit:4;stroke-opacity:1;stroke-dasharray:none"
         inkscape:connector-curvature="0" />
      <path
         sodipodi:nodetypes="cc"
         id="path3782"
         d="m 451.08143,331.03946 c 2.46942,-0.69739 2.94614,0.2356 3.91962,0.76215"
         style="fill:none;stroke:#000000;stroke-width:0.92584974;stroke-linecap:butt;stroke-linejoin:miter;stroke-miterlimit:4;stroke-opacity:1;stroke-dasharray:none"
         inkscape:connector-curvature="0" />
      <path
         sodipodi:nodetypes="cc"
         id="path3786"
         d="m 429.19687,329.18853 c 0.14688,2.58516 -0.50523,4.91537 2.12313,7.18598"
         style="fill:none;stroke:#000000;stroke-width:0.92584974;stroke-linecap:butt;stroke-linejoin:miter;stroke-miterlimit:4;stroke-opacity:1;stroke-dasharray:none"
         inkscape:connector-curvature="0" />
      <path
         sodipodi:nodetypes="cc"
         id="path3788"
         d="m 453.259,330.93059 c -1.12964,4.44963 -2.21758,4.90473 -3.48411,6.20607"
         style="fill:none;stroke:#000000;stroke-width:0.92584974;stroke-linecap:butt;stroke-linejoin:miter;stroke-miterlimit:4;stroke-opacity:1;stroke-dasharray:none"
         inkscape:connector-curvature="0" />
      <path
         sodipodi:nodetypes="cccccccccc"
         id="path3790"
         d="m 433.60644,337.51773 c 5.07842,1.34034 9.96422,1.1398 14.75303,0.16332 -0.83612,3.45089 -2.02198,6.76189 -4.3007,9.63574 -1.04652,-1.12508 -1.46603,-2.25015 -1.79649,-3.37523 -0.20167,1.59647 -0.7601,3.12159 -1.68762,4.57289 -0.69269,-1.00995 -1.34777,-2.0951 -2.17756,-2.83083 -0.39859,0.74528 -0.92858,1.22775 -1.46986,1.68761 -0.36799,-1.65339 -0.5898,-2.72213 -0.81659,-3.81075 -0.0904,0.56287 -0.51131,0.79524 -1.03435,0.92547 -1.2754,-2.22456 -1.31584,-4.60349 -1.46986,-6.96822 z"
         style="fill:url(#linearGradient6005);fill-opacity:1;stroke:#000000;stroke-width:0.92584974;stroke-linecap:butt;stroke-linejoin:miter;stroke-miterlimit:4;stroke-opacity:1;stroke-dasharray:none"
         inkscape:connector-curvature="0" />
      <path
         sodipodi:nodetypes="cc"
         id="path3792"
         d="m 424.73285,320.64158 c -3.02364,-3.52759 -5.40986,-7.16142 -7.56705,-10.83341"
         style="fill:none;stroke:#000000;stroke-width:1.01843464;stroke-linecap:butt;stroke-linejoin:miter;stroke-miterlimit:4;stroke-opacity:1;stroke-dasharray:none"
         inkscape:connector-curvature="0" />
      <path
         sodipodi:nodetypes="cc"
         id="path3794"
         d="m 457.99521,320.2605 c 3.41002,-5.17743 5.76975,-9.37403 7.29486,-12.95654"
         style="fill:none;stroke:#000000;stroke-width:1.01843464;stroke-linecap:butt;stroke-linejoin:miter;stroke-miterlimit:4;stroke-opacity:1;stroke-dasharray:none"
         inkscape:connector-curvature="0" />
      <path
         sodipodi:nodetypes="ccc"
         id="path3798"
         d="m 435.02187,321.89368 c -2.35468,2.60774 -4.08516,7.17248 -8.98248,3.81074 1.1176,-3.08014 3.10928,-7.03093 8.98248,-3.81074 z"
         style="fill:#000000;fill-opacity:1;stroke:#000000;stroke-width:0.46292487px;stroke-linecap:butt;stroke-linejoin:miter;stroke-opacity:1"
         inkscape:connector-curvature="0" />
      <path
         sodipodi:nodetypes="cccc"
         id="path3800"
         d="m 447.81508,321.67592 c 2.01182,0.8363 2.26543,3.11837 5.33504,4.08294 0.43072,0.32652 4.51072,0.59672 2.61308,-2.83084 -1.40084,-1.30821 -3.12686,-4.13692 -7.94812,-1.2521 z"
         style="fill:#000000;fill-opacity:1;stroke:#000000;stroke-width:0.46292487px;stroke-linecap:butt;stroke-linejoin:miter;stroke-opacity:1"
         inkscape:connector-curvature="0" />
      <path
         sodipodi:nodetypes="cssssscccssscccssscccsssssssssccccccssscccssssscccsssccccccccccssssssscccccsssscc"
         id="path3988"
         d="m 424.2263,319.62396 c -1.29533,-1.56667 -2.43936,-3.10383 -3.80455,-5.11196 -1.02269,-1.50433 -2.86649,-4.47955 -2.83466,-4.57411 0.01,-0.0293 -0.0239,-0.36317 -0.0751,-0.74188 -0.3902,-2.88704 -0.43388,-5.74899 -0.11852,-7.76362 0.41124,-2.62704 1.43978,-4.73584 2.98433,-6.11872 1.24995,-1.11911 2.99656,-1.89885 4.92596,-2.19911 l 0.49327,-0.0768 0.36452,0.18203 c 1.00026,0.49948 2.40454,0.78306 4.30573,0.86948 0.65331,0.0297 11.46358,-0.24539 18.42643,-0.31929 3.24477,-0.0344 5.69143,0.1245 5.81742,0.10689 1.09351,-0.15285 1.8442,-0.65341 2.27802,-1.51897 l 0.1231,-0.24561 0.61718,0.32468 c 2.06688,1.08733 3.40039,2.00283 4.56226,3.13218 1.16275,1.13022 1.85537,2.17593 2.27383,3.43302 0.43058,1.29354 0.48548,1.91703 0.4471,5.0772 -0.0163,1.33884 -0.0118,2.58431 0.01,2.7677 l 0.0395,0.33343 -0.32522,0.73301 c -1.14069,2.57093 -2.97485,5.91381 -5.15957,9.40366 -0.42623,0.68084 -1.58105,2.48047 -1.61787,2.52122 -0.009,0.01 -0.23045,-0.12875 -0.4929,-0.30738 -3.00969,-2.04843 -5.74692,-2.63847 -9.18301,-1.9795 -0.64229,0.12317 -1.27481,0.27503 -2.9555,0.70958 -2.08088,0.53801 -3.33087,0.73186 -4.42805,0.68669 -0.64951,-0.0268 -1.81704,-0.17977 -3.3848,-0.44364 -1.33752,-0.22512 -3.19611,-0.5056 -3.84847,-0.58077 -3.38315,-0.38984 -5.73727,-0.0274 -7.58101,1.16739 -0.45441,0.29444 -0.75239,0.52913 -1.11414,0.87747 l -0.25635,0.24685 -0.48878,-0.59116 0,0 -2e-5,0 z m 21.79712,-4.62623 c 4.08276,-1.01807 6.8837,-3.3157 7.96851,-6.53663 0.58274,-1.73022 0.61758,-3.73133 0.0976,-5.60519 -0.0771,-0.27764 -0.13191,-0.51297 -0.12193,-0.52296 0.01,-0.01 0.30475,-0.0746 0.65504,-0.14366 l 0.63687,-0.1255 -0.0307,-0.23167 c -0.0169,-0.12742 -0.0392,-0.24017 -0.0496,-0.25055 -0.0104,-0.0104 -0.31679,0.039 -0.68089,0.10974 -0.36411,0.0707 -0.67742,0.13102 -0.69626,0.13396 -0.0188,0.003 -0.13505,-0.21465 -0.25826,-0.48352 -1.11525,-2.43378 -3.05151,-4.19058 -5.25676,-4.76955 -2.51405,-0.66004 -5.05555,0.11692 -7.53041,2.30213 l -0.42147,0.37214 -0.34359,-0.27555 c -0.96825,-0.77648 -2.43241,-1.60567 -3.45018,-1.95391 -2.14525,-0.73404 -4.27173,-0.55569 -6.03628,0.50625 -1.01273,0.60948 -2.0087,1.58675 -2.75574,2.704 -0.57399,0.85844 -1.29712,2.46612 -1.31023,2.91293 l -0.006,0.19678 -0.60277,9.2e-4 c -0.33152,4.2e-4 -0.68101,0.0137 -0.77665,0.0295 l -0.17387,0.0288 0,0.23943 0,0.23945 0.7252,-0.0195 0.72521,-0.0195 -0.0281,0.13332 c -0.21416,1.01371 -0.21863,2.87041 -0.009,3.86587 0.24511,1.16568 0.70188,2.24667 1.31206,3.10513 0.40142,0.56476 1.16581,1.33035 1.72625,1.72896 0.54334,0.38645 1.5767,0.90551 2.22562,1.11793 0.88464,0.28959 2.23773,0.53937 2.92183,0.53937 0.1508,0 0.48879,0.0239 0.75109,0.0532 0.42272,0.0472 0.51117,0.0737 0.77815,0.2335 1.06699,0.63864 2.38305,0.49498 3.28827,-0.35896 l 0.31662,-0.29868 0.9317,0 0.9317,0 0.31729,0.3173 c 0.35594,0.35593 0.76324,0.58414 1.16965,0.65533 0.14026,0.0246 0.73492,0.068 1.32146,0.0965 0.58654,0.0285 1.07366,0.0716 1.08247,0.0958 0.009,0.0242 0.0506,0.0338 0.0927,0.0213 0.0422,-0.0125 0.2958,-0.0773 0.56357,-0.14412 l 10e-6,0 z"
         style="fill:url(#linearGradient6007);fill-opacity:1;stroke:none"
         inkscape:connector-curvature="0" />
      <path
         sodipodi:nodetypes="ccccccccc"
         id="path3796"
         d="m 425.87608,292.7687 c 0.97658,0.6477 2.63289,1.02352 5.06105,1.09059 11.16798,0.45592 15.23215,-0.60748 23.24666,-0.18646 1.32028,-0.0361 2.32627,-0.54371 2.77708,-1.88404 l 0.10887,-7.62149 c -0.0571,-0.8516 -0.23663,-1.62153 -1.57974,-1.61578 -12.31838,-0.54301 -23.32823,0.57379 -27.32739,-0.0679 -0.90765,0.16114 -1.55947,0.49091 -2.17765,1.52041 l -0.10888,8.76472 z"
         style="fill:url(#linearGradient6009);fill-opacity:1;stroke:#000000;stroke-width:0.92584974;stroke-linecap:butt;stroke-linejoin:miter;stroke-miterlimit:4;stroke-opacity:1;stroke-dasharray:none"
         inkscape:connector-curvature="0" />
    </g>
  </g>
  <g
     inkscape:label="guile-grayscale"
     id="g6015"
     inkscape:groupmode="layer"
     style="display:inline">
    <g
       transform="matrix(0.81766751,0,0,0.81766751,95.548435,109.54072)"
       id="g6017"
       style="filter:url(#filter6069)"
       inkscape:export-filename="/home/avp/graph/моё/guile-prime/guile-prime-2015-10-20.png"
       inkscape:export-xdpi="299"
       inkscape:export-ydpi="299">
      <path
         inkscape:connector-curvature="0"
         style="fill:url(#linearGradient5993);fill-opacity:1;stroke:#000000;stroke-width:0.92584974;stroke-linecap:butt;stroke-linejoin:miter;stroke-miterlimit:4;stroke-opacity:1;stroke-dasharray:none"
         d="m 426.051,284.40624 -0.15387,8.36058 c -10.10392,1.1739 -9.35794,11.37931 -8.56574,17.0289 -16.01829,7.70842 -20.40802,-9.09618 -18.51637,-15.07981 4.0166,12.05211 12.99372,10.3199 15.86866,3.29615 4.66617,-11.3999 6.67509,-12.55255 11.01616,-13.87549 l 0.35116,0.26967 z"
         id="path6019"
         sodipodi:nodetypes="ccccsz" />
      <path
         inkscape:connector-curvature="0"
         style="fill:url(#linearGradient5995);fill-opacity:1;stroke:#000000;stroke-width:0.92584974;stroke-linecap:butt;stroke-linejoin:miter;stroke-miterlimit:4;stroke-opacity:1;stroke-dasharray:none"
         d="m 413.0886,300.68221 c 0.49802,-0.54328 0.83664,-1.19285 1.14585,-1.86201 -2.39178,-0.95972 -4.53356,-1.84694 -6.86183,-2.29854 0.18735,2.09146 3.61026,2.85901 5.71598,4.16055 z"
         id="path6021"
         sodipodi:nodetypes="cccc" />
      <path
         inkscape:connector-curvature="0"
         style="fill:url(#linearGradient5997);fill-opacity:1;stroke:#000000;stroke-width:0.92584974;stroke-linecap:butt;stroke-linejoin:miter;stroke-miterlimit:4;stroke-opacity:1;stroke-dasharray:none"
         d="m 416.66939,293.35351 c -7.28537,-3.28316 -9.06396,1.18255 -14.27545,2.2201 0.39104,1.29672 2.73452,1.00222 4.40001,0.97993 2.38606,0.0508 4.95419,1.39026 7.51212,2.26666 1.03954,-2.03204 1.69537,-3.74431 2.36332,-5.46669 z"
         id="path6023"
         sodipodi:nodetypes="ccccc" />
      <path
         inkscape:connector-curvature="0"
         style="fill:url(#linearGradient5999);fill-opacity:1;stroke:#000000;stroke-width:0.92584974;stroke-linecap:butt;stroke-linejoin:miter;stroke-miterlimit:4;stroke-opacity:1;stroke-dasharray:none"
         d="m 457.08469,284.16279 -0.0478,7.63904 c 11.01066,5.31474 7.55669,10.46322 8.30746,15.66003 15.02802,8.1781 19.59843,-10.87956 17.71302,-14.65741 -4.27479,5.99792 -2.88155,8.844 -8.93555,9.14191 -7.34739,0.36156 -8.56094,-16.24636 -17.03718,-17.78357 z"
         id="path6025"
         sodipodi:nodetypes="ccccsc" />
      <path
         inkscape:connector-curvature="0"
         style="fill:url(#linearGradient6001);fill-opacity:1;stroke:#000000;stroke-width:0.92584974;stroke-linecap:butt;stroke-linejoin:miter;stroke-miterlimit:4;stroke-opacity:1;stroke-dasharray:none"
         d="m 463.50954,289.1385 c 1.3659,2.49342 2.69366,4.98607 4.05122,7.39346 2.58314,-4.02687 8.37038,-4.61283 7.83234,-6.95458 -5.09182,1.37551 -7.07565,-3.5055 -11.88356,-0.43888 z"
         id="path6027"
         sodipodi:nodetypes="cccc" />
      <path
         inkscape:connector-curvature="0"
         style="fill:none;stroke:#000000;stroke-width:0.46292487px;stroke-linecap:butt;stroke-linejoin:miter;stroke-opacity:1"
         d="m 424.90304,303.62668 c 5.142,-0.34191 10.12508,0.74648 14.99886,2.81858"
         id="path6029"
         sodipodi:nodetypes="cc" />
      <path
         inkscape:connector-curvature="0"
         style="fill:none;stroke:#000000;stroke-width:0.46292487px;stroke-linecap:butt;stroke-linejoin:miter;stroke-opacity:1"
         d="m 440.60654,307.90488 c 2.08179,-2.24013 5.46806,-4.38181 14.59621,-6.09014"
         id="path6031"
         sodipodi:nodetypes="cc" />
      <path
         inkscape:connector-curvature="0"
         style="fill:#e5c988;fill-opacity:1;stroke:#000000;stroke-width:0.00482474;stroke-miterlimit:4;stroke-opacity:1;stroke-dasharray:none"
         d="m 440.32776,306.97136 -0.53645,-0.25145 0.0725,-0.18171 c 0.0419,-0.10504 0.0545,-0.19956 0.0299,-0.22402 -0.073,-0.0725 -1.73295,-0.72025 -2.74448,-1.07103 -2.8981,-1.00501 -5.73767,-1.61564 -8.58807,-1.84682 -0.49508,-0.0401 -1.16855,-0.073 -1.4966,-0.073 -0.36148,0 -0.60868,-0.0198 -0.62751,-0.0503 -0.0742,-0.12009 0.40099,-1.38705 0.8136,-2.16913 1.1827,-2.24176 3.00131,-3.71767 5.14621,-4.17644 0.50651,-0.10835 1.48246,-0.14292 2.05671,-0.0729 0.54427,0.0664 1.22831,0.22788 1.75484,0.41427 1.02834,0.36405 2.48615,1.21588 3.53316,2.06451 0.28473,0.23079 0.54009,0.41961 0.56748,0.41961 0.0274,0 0.27206,-0.20878 0.54374,-0.46395 0.47093,-0.44232 1.32427,-1.11504 1.7574,-1.38544 2.08927,-1.30427 4.1401,-1.64633 6.1154,-1.01999 1.94038,0.61527 3.76337,2.3419 4.77591,4.52348 0.21324,0.45944 0.21522,0.46828 0.11039,0.49168 -0.0587,0.0131 -0.45415,0.10135 -0.87872,0.1961 -3.24062,0.72321 -5.9929,1.63721 -8.08145,2.68376 -1.34171,0.67232 -2.21215,1.23379 -3.1828,2.05303 -0.26046,0.21983 -0.50306,0.39776 -0.5391,0.39541 -0.036,-0.002 -0.30693,-0.11744 -0.60198,-0.25573 l 0,0 z"
         id="path6033" />
      <path
         inkscape:connector-curvature="0"
         style="fill:none;stroke:#000000;stroke-width:0.92584974;stroke-linecap:butt;stroke-linejoin:miter;stroke-miterlimit:4;stroke-opacity:1;stroke-dasharray:none"
         d="m 445.33773,314.901 c 17.09296,-3.67424 6.15944,-26.35325 -4.98285,-15.30085 -12.82109,-10.92756 -20.99791,13.76704 -5.63715,14.49554"
         id="path6035"
         sodipodi:nodetypes="ccc" />
      <path
         sodipodi:type="arc"
         style="fill:#000000;fill-opacity:1;stroke:#000000;stroke-width:1;stroke-miterlimit:4;stroke-opacity:1;stroke-dasharray:none"
         id="path6037"
         sodipodi:cx="92.843918"
         sodipodi:cy="67.329582"
         sodipodi:rx="5.5859232"
         sodipodi:ry="6.7619066"
         d="m 98.429841,67.329582 a 5.5859232,6.7619066 0 1 1 -11.171846,0 5.5859232,6.7619066 0 1 1 11.171846,0 z"
         transform="matrix(0.48646528,0,0,0.4582187,392.25184,280.80743)" />
      <path
         sodipodi:type="arc"
         style="fill:#ffffff;fill-opacity:1;stroke:#000000;stroke-width:1;stroke-miterlimit:4;stroke-opacity:1;stroke-dasharray:none"
         id="path6039"
         sodipodi:cx="94.255104"
         sodipodi:cy="65.683205"
         sodipodi:rx="2.6886256"
         sodipodi:ry="3.0189381"
         d="m 96.94373,65.683205 a 2.6886256,3.0189381 0 1 1 -5.377252,0 2.6886256,3.0189381 0 1 1 5.377252,0 z"
         transform="matrix(0.50061851,0,0,0.49726795,390.63963,278.31646)" />
      <path
         sodipodi:type="arc"
         style="fill:#000000;fill-opacity:1;stroke:#000000;stroke-width:1;stroke-miterlimit:4;stroke-opacity:1;stroke-dasharray:none"
         id="path6041"
         sodipodi:cx="106.89693"
         sodipodi:cy="66.800385"
         sodipodi:rx="5.0567303"
         sodipodi:ry="7.055903"
         d="m 111.95366,66.800385 a 5.0567303,7.055903 0 1 1 -10.11346,0 5.0567303,7.055903 0 1 1 10.11346,0 z"
         transform="matrix(0.50086081,0.08011969,-0.08831528,0.45438133,396.11837,272.57839)" />
      <path
         transform="matrix(0.46292485,0,0,0.46292485,394.30133,280.46335)"
         sodipodi:type="arc"
         style="fill:#ffffff;fill-opacity:1;stroke:#000000;stroke-width:1;stroke-miterlimit:4;stroke-opacity:1;stroke-dasharray:none"
         id="path6043"
         sodipodi:cx="108.19051"
         sodipodi:cy="65.448006"
         sodipodi:rx="2.9878089"
         sodipodi:ry="3.3166795"
         d="m 111.17832,65.448006 a 2.9878089,3.3166795 0 1 1 -5.97562,0 2.9878089,3.3166795 0 1 1 5.97562,0 z" />
      <path
         inkscape:connector-curvature="0"
         style="fill:url(#linearGradient6003);fill-opacity:1;stroke:#000000;stroke-width:0.92584974;stroke-linecap:butt;stroke-linejoin:miter;stroke-miterlimit:4;stroke-opacity:1;stroke-dasharray:none"
         d="m 458.04965,320.2605 c -7.35771,-5.53115 -11.57772,-0.92509 -17.25723,-1.03435 -5.74728,-0.55593 -12.17484,-3.10035 -16.16844,1.46987 -0.82028,5.92223 -0.82509,13.28505 8.92802,16.71283 4.88139,1.32226 9.76277,1.27087 14.64416,0.2722 4.96501,-1.45732 11.50254,-4.94709 9.85349,-17.42055 z"
         id="path6045"
         sodipodi:nodetypes="cccccc" />
      <path
         inkscape:connector-curvature="0"
         style="fill:none;stroke:#000000;stroke-width:0.92584974;stroke-linecap:butt;stroke-linejoin:miter;stroke-miterlimit:4;stroke-opacity:1;stroke-dasharray:none"
         d="m 431.10224,328.80746 c -3.47807,0.1649 -3.45361,1.1011 -4.19182,1.63317"
         id="path6047"
         sodipodi:nodetypes="cc" />
      <path
         inkscape:connector-curvature="0"
         style="fill:none;stroke:#000000;stroke-width:0.92584974;stroke-linecap:butt;stroke-linejoin:miter;stroke-miterlimit:4;stroke-opacity:1;stroke-dasharray:none"
         d="m 451.08143,331.03946 c 2.46942,-0.69739 2.94614,0.2356 3.91962,0.76215"
         id="path6049"
         sodipodi:nodetypes="cc" />
      <path
         inkscape:connector-curvature="0"
         style="fill:none;stroke:#000000;stroke-width:0.92584974;stroke-linecap:butt;stroke-linejoin:miter;stroke-miterlimit:4;stroke-opacity:1;stroke-dasharray:none"
         d="m 429.19687,329.18853 c 0.14688,2.58516 -0.50523,4.91537 2.12313,7.18598"
         id="path6051"
         sodipodi:nodetypes="cc" />
      <path
         inkscape:connector-curvature="0"
         style="fill:none;stroke:#000000;stroke-width:0.92584974;stroke-linecap:butt;stroke-linejoin:miter;stroke-miterlimit:4;stroke-opacity:1;stroke-dasharray:none"
         d="m 453.259,330.93059 c -1.12964,4.44963 -2.21758,4.90473 -3.48411,6.20607"
         id="path6053"
         sodipodi:nodetypes="cc" />
      <path
         inkscape:connector-curvature="0"
         style="fill:url(#linearGradient6005);fill-opacity:1;stroke:#000000;stroke-width:0.92584974;stroke-linecap:butt;stroke-linejoin:miter;stroke-miterlimit:4;stroke-opacity:1;stroke-dasharray:none"
         d="m 433.60644,337.51773 c 5.07842,1.34034 9.96422,1.1398 14.75303,0.16332 -0.83612,3.45089 -2.02198,6.76189 -4.3007,9.63574 -1.04652,-1.12508 -1.46603,-2.25015 -1.79649,-3.37523 -0.20167,1.59647 -0.7601,3.12159 -1.68762,4.57289 -0.69269,-1.00995 -1.34777,-2.0951 -2.17756,-2.83083 -0.39859,0.74528 -0.92858,1.22775 -1.46986,1.68761 -0.36799,-1.65339 -0.5898,-2.72213 -0.81659,-3.81075 -0.0904,0.56287 -0.51131,0.79524 -1.03435,0.92547 -1.2754,-2.22456 -1.31584,-4.60349 -1.46986,-6.96822 z"
         id="path6055"
         sodipodi:nodetypes="cccccccccc" />
      <path
         inkscape:connector-curvature="0"
         style="fill:none;stroke:#000000;stroke-width:1.01843464;stroke-linecap:butt;stroke-linejoin:miter;stroke-miterlimit:4;stroke-opacity:1;stroke-dasharray:none"
         d="m 424.73285,320.64158 c -3.02364,-3.52759 -5.40986,-7.16142 -7.56705,-10.83341"
         id="path6057"
         sodipodi:nodetypes="cc" />
      <path
         inkscape:connector-curvature="0"
         style="fill:none;stroke:#000000;stroke-width:1.01843464;stroke-linecap:butt;stroke-linejoin:miter;stroke-miterlimit:4;stroke-opacity:1;stroke-dasharray:none"
         d="m 457.99521,320.2605 c 3.41002,-5.17743 5.76975,-9.37403 7.29486,-12.95654"
         id="path6059"
         sodipodi:nodetypes="cc" />
      <path
         inkscape:connector-curvature="0"
         style="fill:#000000;fill-opacity:1;stroke:#000000;stroke-width:0.46292487px;stroke-linecap:butt;stroke-linejoin:miter;stroke-opacity:1"
         d="m 435.02187,321.89368 c -2.35468,2.60774 -4.08516,7.17248 -8.98248,3.81074 1.1176,-3.08014 3.10928,-7.03093 8.98248,-3.81074 z"
         id="path6061"
         sodipodi:nodetypes="ccc" />
      <path
         inkscape:connector-curvature="0"
         style="fill:#000000;fill-opacity:1;stroke:#000000;stroke-width:0.46292487px;stroke-linecap:butt;stroke-linejoin:miter;stroke-opacity:1"
         d="m 447.81508,321.67592 c 2.01182,0.8363 2.26543,3.11837 5.33504,4.08294 0.43072,0.32652 4.51072,0.59672 2.61308,-2.83084 -1.40084,-1.30821 -3.12686,-4.13692 -7.94812,-1.2521 z"
         id="path6063"
         sodipodi:nodetypes="cccc" />
      <path
         inkscape:connector-curvature="0"
         style="fill:url(#linearGradient6007);fill-opacity:1;stroke:none"
         d="m 424.2263,319.62396 c -1.29533,-1.56667 -2.43936,-3.10383 -3.80455,-5.11196 -1.02269,-1.50433 -2.86649,-4.47955 -2.83466,-4.57411 0.01,-0.0293 -0.0239,-0.36317 -0.0751,-0.74188 -0.3902,-2.88704 -0.43388,-5.74899 -0.11852,-7.76362 0.41124,-2.62704 1.43978,-4.73584 2.98433,-6.11872 1.24995,-1.11911 2.99656,-1.89885 4.92596,-2.19911 l 0.49327,-0.0768 0.36452,0.18203 c 1.00026,0.49948 2.40454,0.78306 4.30573,0.86948 0.65331,0.0297 11.46358,-0.24539 18.42643,-0.31929 3.24477,-0.0344 5.69143,0.1245 5.81742,0.10689 1.09351,-0.15285 1.8442,-0.65341 2.27802,-1.51897 l 0.1231,-0.24561 0.61718,0.32468 c 2.06688,1.08733 3.40039,2.00283 4.56226,3.13218 1.16275,1.13022 1.85537,2.17593 2.27383,3.43302 0.43058,1.29354 0.48548,1.91703 0.4471,5.0772 -0.0163,1.33884 -0.0118,2.58431 0.01,2.7677 l 0.0395,0.33343 -0.32522,0.73301 c -1.14069,2.57093 -2.97485,5.91381 -5.15957,9.40366 -0.42623,0.68084 -1.58105,2.48047 -1.61787,2.52122 -0.009,0.01 -0.23045,-0.12875 -0.4929,-0.30738 -3.00969,-2.04843 -5.74692,-2.63847 -9.18301,-1.9795 -0.64229,0.12317 -1.27481,0.27503 -2.9555,0.70958 -2.08088,0.53801 -3.33087,0.73186 -4.42805,0.68669 -0.64951,-0.0268 -1.81704,-0.17977 -3.3848,-0.44364 -1.33752,-0.22512 -3.19611,-0.5056 -3.84847,-0.58077 -3.38315,-0.38984 -5.73727,-0.0274 -7.58101,1.16739 -0.45441,0.29444 -0.75239,0.52913 -1.11414,0.87747 l -0.25635,0.24685 -0.48878,-0.59116 0,0 -2e-5,0 z m 21.79712,-4.62623 c 4.08276,-1.01807 6.8837,-3.3157 7.96851,-6.53663 0.58274,-1.73022 0.61758,-3.73133 0.0976,-5.60519 -0.0771,-0.27764 -0.13191,-0.51297 -0.12193,-0.52296 0.01,-0.01 0.30475,-0.0746 0.65504,-0.14366 l 0.63687,-0.1255 -0.0307,-0.23167 c -0.0169,-0.12742 -0.0392,-0.24017 -0.0496,-0.25055 -0.0104,-0.0104 -0.31679,0.039 -0.68089,0.10974 -0.36411,0.0707 -0.67742,0.13102 -0.69626,0.13396 -0.0188,0.003 -0.13505,-0.21465 -0.25826,-0.48352 -1.11525,-2.43378 -3.05151,-4.19058 -5.25676,-4.76955 -2.51405,-0.66004 -5.05555,0.11692 -7.53041,2.30213 l -0.42147,0.37214 -0.34359,-0.27555 c -0.96825,-0.77648 -2.43241,-1.60567 -3.45018,-1.95391 -2.14525,-0.73404 -4.27173,-0.55569 -6.03628,0.50625 -1.01273,0.60948 -2.0087,1.58675 -2.75574,2.704 -0.57399,0.85844 -1.29712,2.46612 -1.31023,2.91293 l -0.006,0.19678 -0.60277,9.2e-4 c -0.33152,4.2e-4 -0.68101,0.0137 -0.77665,0.0295 l -0.17387,0.0288 0,0.23943 0,0.23945 0.7252,-0.0195 0.72521,-0.0195 -0.0281,0.13332 c -0.21416,1.01371 -0.21863,2.87041 -0.009,3.86587 0.24511,1.16568 0.70188,2.24667 1.31206,3.10513 0.40142,0.56476 1.16581,1.33035 1.72625,1.72896 0.54334,0.38645 1.5767,0.90551 2.22562,1.11793 0.88464,0.28959 2.23773,0.53937 2.92183,0.53937 0.1508,0 0.48879,0.0239 0.75109,0.0532 0.42272,0.0472 0.51117,0.0737 0.77815,0.2335 1.06699,0.63864 2.38305,0.49498 3.28827,-0.35896 l 0.31662,-0.29868 0.9317,0 0.9317,0 0.31729,0.3173 c 0.35594,0.35593 0.76324,0.58414 1.16965,0.65533 0.14026,0.0246 0.73492,0.068 1.32146,0.0965 0.58654,0.0285 1.07366,0.0716 1.08247,0.0958 0.009,0.0242 0.0506,0.0338 0.0927,0.0213 0.0422,-0.0125 0.2958,-0.0773 0.56357,-0.14412 l 10e-6,0 z"
         id="path6065"
         sodipodi:nodetypes="cssssscccssscccssscccsssssssssccccccssscccssssscccsssccccccccccssssssscccccsssscc" />
      <path
         inkscape:connector-curvature="0"
         style="fill:url(#linearGradient6009);fill-opacity:1;stroke:#000000;stroke-width:0.92584974;stroke-linecap:butt;stroke-linejoin:miter;stroke-miterlimit:4;stroke-opacity:1;stroke-dasharray:none"
         d="m 425.87608,292.7687 c 0.97658,0.6477 2.63289,1.02352 5.06105,1.09059 11.16798,0.45592 15.23215,-0.60748 23.24666,-0.18646 1.32028,-0.0361 2.32627,-0.54371 2.77708,-1.88404 l 0.10887,-7.62149 c -0.0571,-0.8516 -0.23663,-1.62153 -1.57974,-1.61578 -12.31838,-0.54301 -23.32823,0.57379 -27.32739,-0.0679 -0.90765,0.16114 -1.55947,0.49091 -2.17765,1.52041 l -0.10888,8.76472 z"
         id="path6067"
         sodipodi:nodetypes="ccccccccc" />
    </g>
  </g>
</svg>
